M48
;DRILL file {KiCad 4.0.5-e0-6337~49~ubuntu16.04.1} date Mon Jan 23 14:36:53 2017
;FORMAT={-:-/ absolute / inch / decimal}
FMAT,2
INCH,TZ
T1C0.067
T2C0.120
T3C0.157
%
G90
G05
M72
T1
X2.6125Y-2.9062
X2.7062Y-5.9062
X2.7063Y-5.1563
X2.8Y-3.6563
X2.8938Y-4.4063
X3.0125Y-2.9062
X3.0812Y-5.1563
X3.1062Y-5.9062
X3.1063Y-5.1563
X3.2Y-3.6563
X3.2938Y-4.4063
X3.3625Y-2.9062
X3.4812Y-5.1563
X3.55Y-5.1563
X3.6437Y-5.9062
X3.7375Y-3.6563
X3.7625Y-2.9062
X3.925Y-4.4063
X3.95Y-5.1563
X4.0438Y-5.9062
X4.1125Y-2.9062
X4.1375Y-3.6563
X4.3Y-5.1563
X4.325Y-4.4063
X4.4875Y-3.6563
X4.5125Y-2.9062
X4.5812Y-5.9062
X4.675Y-4.4063
X4.7Y-5.1563
X4.8625Y-2.9062
X4.8875Y-3.6563
X4.9813Y-5.9062
X5.05Y-5.1563
X5.075Y-4.4063
X5.2375Y-3.6563
X5.2625Y-2.9062
X5.425Y-4.4063
X5.45Y-5.1563
X5.6125Y-2.9062
X5.6375Y-3.6563
X5.8Y-5.1563
X5.825Y-4.4063
X5.9875Y-3.6563
X6.0125Y-2.9062
X6.175Y-4.4063
X6.2Y-5.1563
X6.3625Y-2.9062
X6.3875Y-3.6563
X6.55Y-5.1563
X6.575Y-4.4063
X6.7375Y-3.6563
X6.7625Y-2.9062
X6.925Y-4.4063
X6.95Y-5.1563
X7.1125Y-2.9062
X7.1375Y-3.6563
X7.3Y-5.1563
X7.325Y-4.4063
X7.39Y-5.905
X7.4875Y-3.6563
X7.5125Y-2.9062
X7.675Y-4.4063
X7.7Y-5.1563
X7.79Y-5.905
X7.8625Y-2.9062
X7.8875Y-3.6563
X8.05Y-5.1563
X8.075Y-4.4063
X8.2375Y-3.6563
X8.2625Y-2.9062
X8.425Y-4.4063
X8.45Y-5.1563
X8.6125Y-2.9062
X8.6375Y-3.6563
X8.8Y-5.1563
X8.825Y-4.4063
X8.9875Y-3.6563
X9.0125Y-2.9062
X9.175Y-4.4063
X9.2Y-5.1563
X9.3625Y-2.9062
X9.3875Y-3.6563
X9.55Y-5.1563
X9.575Y-4.4063
X9.7375Y-3.6563
X9.7625Y-2.9062
X9.925Y-4.4063
X9.95Y-5.1563
X10.1125Y-2.9062
X10.1375Y-3.6563
X10.2062Y-5.9062
X10.3Y-5.1563
X10.325Y-4.4063
X10.4875Y-3.6563
X10.5125Y-2.9062
X10.6062Y-5.9062
X10.675Y-4.4063
X10.7Y-5.1563
X10.8625Y-2.9062
X10.8875Y-3.6563
X11.05Y-5.1563
X11.075Y-4.4063
X11.1437Y-5.9062
X11.2375Y-3.6563
X11.2625Y-2.9062
X11.425Y-4.4063
X11.45Y-5.1563
X11.5437Y-5.9062
X11.6125Y-2.9062
X11.6375Y-3.6563
X11.825Y-4.4063
X11.9875Y-3.6563
X12.0125Y-2.9062
X12.0812Y-5.9062
X12.175Y-4.4063
X12.3875Y-3.6563
X12.4563Y-5.1563
X12.4812Y-5.9062
X12.575Y-4.4063
X12.6437Y-4.4063
X12.7375Y-2.9062
X12.8563Y-5.1563
X12.925Y-3.6563
X13.0187Y-5.9062
X13.0437Y-4.4063
X13.1375Y-2.9062
X13.2188Y-3.8312
X13.2188Y-4.2313
X13.325Y-3.6563
X13.4187Y-5.9062
T2
X2.8112Y-4.8813
X3.7512Y-4.8813
X5.6238Y-6.1812
X9.5638Y-6.1812
X12.1863Y-4.8813
X12.3737Y-4.1313
X12.4675Y-2.6313
X13.1263Y-4.8813
X13.3137Y-4.1313
X13.4075Y-2.6313
X13.4938Y-3.5612
X13.4938Y-4.5012
T3
X2.8112Y-5.4813
X2.8125Y-2.9062
X2.9062Y-5.9062
X2.9063Y-5.1563
X3.Y-3.6563
X3.0938Y-4.4063
X3.2812Y-5.1563
X3.5625Y-2.9062
X3.75Y-5.1563
X3.7512Y-5.4813
X3.8438Y-5.9062
X3.9375Y-3.6563
X4.125Y-4.4063
X4.3125Y-2.9062
X4.5Y-5.1563
X4.6875Y-3.6563
X4.7812Y-5.9062
X4.875Y-4.4063
X5.0625Y-2.9062
X5.25Y-5.1563
X5.4375Y-3.6563
X5.6238Y-5.5812
X5.625Y-4.4063
X5.8125Y-2.9062
X6.Y-5.1563
X6.1875Y-3.6563
X6.375Y-4.4063
X6.5625Y-2.9062
X6.75Y-5.1563
X6.9375Y-3.6563
X7.125Y-4.4063
X7.3125Y-2.9062
X7.5Y-5.1563
X7.59Y-5.905
X7.6875Y-3.6563
X7.875Y-4.4063
X8.0625Y-2.9062
X8.25Y-5.1563
X8.4375Y-3.6563
X8.625Y-4.4063
X8.8125Y-2.9062
X9.Y-5.1563
X9.1875Y-3.6563
X9.375Y-4.4063
X9.5625Y-2.9062
X9.5638Y-5.5812
X9.75Y-5.1563
X9.9375Y-3.6563
X10.125Y-4.4063
X10.3125Y-2.9062
X10.4062Y-5.9062
X10.5Y-5.1563
X10.6875Y-3.6563
X10.875Y-4.4063
X11.0625Y-2.9062
X11.25Y-5.1563
X11.3438Y-5.9062
X11.4375Y-3.6563
X11.625Y-4.4063
X11.8125Y-2.9062
X12.1863Y-5.4813
X12.1875Y-3.6563
X12.2812Y-5.9062
X12.3737Y-4.7313
X12.375Y-4.4063
X12.4675Y-3.2312
X12.6563Y-5.1563
X12.8438Y-4.4063
X12.8937Y-3.5612
X12.8937Y-4.5012
X12.9375Y-2.9062
X13.125Y-3.6563
X13.1263Y-5.4813
X13.2188Y-4.0312
X13.2188Y-5.9062
X13.3137Y-4.7313
X13.4075Y-3.2312
T0
M30
