M48
;DRILL file {KiCad 4.0.5-e0-6337~49~ubuntu16.04.1} date Mon Jan 23 14:36:53 2017
;FORMAT={-:-/ absolute / inch / decimal}
FMAT,2
INCH,TZ
T1C0.016
T2C0.028
T3C0.039
T4C0.039
T5C0.059
T6C0.075
T7C0.098
T8C0.098
%
G90
G05
M72
T1
X2.6Y-5.525
X2.775Y-3.925
X3.14Y-2.98
X3.15Y-3.2
X3.225Y-3.175
X3.36Y-4.005
X3.425Y-3.245
X3.575Y-5.025
X3.925Y-3.95
X3.925Y-5.025
X4.025Y-5.525
X4.225Y-3.2
X4.225Y-3.9
X4.25Y-3.175
X4.25Y-3.875
X4.275Y-3.245
X4.3Y-4.025
X4.3Y-5.7
X4.375Y-5.025
X4.475Y-3.9
X4.475Y-4.85
X4.5Y-3.87
X4.5Y-4.82
X4.575Y-4.025
X4.675Y-3.975
X4.675Y-5.025
X4.725Y-5.475
X4.75Y-4.025
X4.83Y-4.7
X4.83Y-5.45
X4.86Y-4.735
X4.86Y-5.42
X4.89Y-4.57
X4.89Y-5.39
X5.015Y-5.45
X5.05Y-5.42
X5.075Y-5.39
X5.125Y-4.025
X5.15Y-4.7
X5.18Y-4.725
X5.2Y-5.445
X5.35Y-4.025
X5.415Y-3.895
X5.425Y-5.55
X5.45Y-5.525
X5.48Y-5.475
X5.63Y-5.98
X5.64Y-4.845
X5.64Y-5.37
X5.665Y-4.82
X5.665Y-5.345
X5.685Y-5.91
X5.695Y-5.94
X5.745Y-5.955
X5.775Y-3.175
X5.88Y-5.76
X5.885Y-5.99
X5.9Y-4.025
X5.96Y-6.21
X5.98Y-5.62
X6.Y-5.875
X6.005Y-5.645
X6.015Y-6.195
X6.045Y-5.61
X6.055Y-6.12
X6.08Y-5.61
X6.1Y-4.025
X6.115Y-5.765
X6.14Y-6.015
X6.145Y-6.075
X6.18Y-6.07
X6.215Y-5.46
X6.235Y-5.78
X6.235Y-5.915
X6.235Y-5.99
X6.255Y-5.46
X6.255Y-5.73
X6.27Y-5.99
X6.29Y-5.37
X6.29Y-5.75
X6.3Y-4.95
X6.31Y-5.99
X6.315Y-5.395
X6.325Y-4.85
X6.34Y-5.415
X6.345Y-5.895
X6.35Y-4.825
X6.365Y-5.87
X6.375Y-4.8
X6.375Y-5.96
X6.395Y-5.67
X6.4Y-4.775
X6.415Y-5.57
X6.425Y-4.75
X6.445Y-5.545
X6.45Y-4.725
X6.475Y-4.7
X6.5Y-3.2
X6.5Y-4.675
X6.5Y-5.865
X6.6Y-4.95
X6.65Y-6.2
X6.675Y-5.515
X6.7Y-4.2
X6.705Y-5.49
X6.735Y-5.465
X6.75Y-5.685
X6.81Y-6.14
X6.825Y-5.515
X6.85Y-4.025
X6.905Y-4.075
X6.925Y-5.645
X7.Y-5.74
X7.125Y-4.025
X7.125Y-5.78
X7.19Y-5.54
X7.23Y-5.54
X7.25Y-3.225
X7.35Y-4.85
X7.35Y-5.025
X7.45Y-5.515
X7.49Y-3.25
X7.675Y-5.025
X7.79Y-2.625
X7.915Y-5.545
X7.98Y-4.875
X8.015Y-3.375
X8.095Y-6.115
X8.125Y-4.825
X8.18Y-6.09
X8.245Y-4.12
X8.33Y-6.14
X8.4Y-3.35
X8.505Y-5.6
X8.53Y-5.82
X8.675Y-3.175
X8.675Y-5.735
X8.7Y-3.9
X8.725Y-3.2
X8.725Y-3.925
X8.725Y-6.165
X8.75Y-3.225
X8.75Y-3.95
X8.775Y-3.25
X8.78Y-5.97
X8.83Y-6.14
X8.885Y-6.165
X8.94Y-5.68
X9.Y-3.5
X9.045Y-5.735
X9.07Y-6.065
X9.115Y-6.065
X9.1193Y-5.8093
X9.1193Y-5.8969
X9.1193Y-5.9407
X9.155Y-6.035
X9.16Y-5.635
X9.1631Y-5.9407
X9.2069Y-5.9407
X9.24Y-6.035
X9.245Y-6.205
X9.25Y-5.55
X9.2507Y-5.8093
X9.2507Y-5.9407
X9.29Y-6.035
X9.325Y-4.025
X9.34Y-6.
X9.35Y-5.715
X9.375Y-3.35
X9.375Y-5.865
X9.425Y-3.8
X9.47Y-5.975
X9.475Y-3.575
X9.525Y-3.525
X9.545Y-5.915
X9.55Y-3.575
X9.575Y-3.85
X9.625Y-4.8
X9.7Y-4.025
X9.75Y-5.45
X9.825Y-4.2
X9.85Y-4.775
X9.85Y-5.55
X9.875Y-5.575
X9.925Y-5.625
X9.95Y-5.65
X10.Y-3.375
X10.075Y-5.45
X10.125Y-5.1
X10.225Y-5.55
X10.25Y-4.025
X10.45Y-4.2
X10.525Y-5.6
X10.55Y-4.025
X10.575Y-5.6
X10.575Y-5.7
X10.6Y-4.75
X11.Y-4.025
X11.Y-5.575
X11.2Y-4.2
X11.35Y-4.725
X11.4Y-5.6
X11.6Y-4.875
X11.8Y-5.1317
X11.9Y-4.025
X11.9Y-4.575
X11.9Y-4.775
X11.975Y-5.325
X11.975Y-5.625
X12.Y-5.15
X12.Y-5.65
X12.025Y-4.7
X12.075Y-5.15
X12.075Y-5.325
X12.275Y-5.025
X12.6Y-4.725
X12.925Y-4.675
X12.925Y-4.85
X12.975Y-5.025
X13.025Y-4.65
T2
X3.1261Y-2.9172
X3.1576Y-2.87
X3.189Y-2.9172
X3.2204Y-2.87
X3.2519Y-2.9172
T3
X2.7625Y-2.7062
X2.8562Y-5.7062
X2.8563Y-4.9563
X2.8625Y-2.7062
X2.95Y-3.4563
X2.9562Y-5.7062
X2.9563Y-4.9563
X3.045Y-4.205
X3.05Y-3.4563
X3.145Y-4.205
X3.2312Y-4.9563
X3.3312Y-4.9563
X3.5125Y-2.7062
X3.6125Y-2.7062
X3.7Y-4.9563
X3.7937Y-5.7062
X3.8Y-4.9563
X3.8875Y-3.4563
X3.8937Y-5.7062
X3.9875Y-3.4563
X4.075Y-4.2063
X4.175Y-4.2063
X4.2625Y-2.7062
X4.3625Y-2.7062
X4.45Y-4.9563
X4.55Y-4.9563
X4.6375Y-3.4563
X4.7313Y-5.7062
X4.7375Y-3.4563
X4.825Y-4.2063
X4.8312Y-5.7062
X4.925Y-4.2063
X5.0125Y-2.7062
X5.1125Y-2.7062
X5.2Y-4.9563
X5.3Y-4.9563
X5.3875Y-3.4563
X5.4875Y-3.4563
X5.575Y-4.2063
X5.675Y-4.2063
X5.7625Y-2.7062
X5.8625Y-2.7062
X5.95Y-4.9563
X6.05Y-4.9563
X6.1375Y-3.4563
X6.2375Y-3.4563
X6.325Y-4.2063
X6.425Y-4.2063
X6.5125Y-2.7062
X6.6125Y-2.7062
X6.7Y-4.9563
X6.8Y-4.9563
X6.8875Y-3.4563
X6.9875Y-3.4563
X7.075Y-4.2063
X7.175Y-4.2063
X7.2625Y-2.7062
X7.3625Y-2.7062
X7.45Y-4.9563
X7.5438Y-6.1063
X7.55Y-4.9563
X7.6375Y-3.4563
X7.6437Y-6.1063
X7.7375Y-3.4563
X7.825Y-4.2063
X7.925Y-4.2063
X8.0125Y-2.7062
X8.1125Y-2.7062
X8.2Y-4.9563
X8.3Y-4.9563
X8.3875Y-3.4563
X8.4875Y-3.4563
X8.575Y-4.2063
X8.675Y-4.2063
X8.7625Y-2.7062
X8.8625Y-2.7062
X8.95Y-4.9563
X9.05Y-4.9563
X9.1375Y-3.4563
X9.2375Y-3.4563
X9.325Y-4.2063
X9.425Y-4.2063
X9.5125Y-2.7062
X9.6125Y-2.7062
X9.7Y-4.9563
X9.8Y-4.9563
X9.8875Y-3.4563
X9.9875Y-3.4563
X10.075Y-4.2063
X10.175Y-4.2063
X10.2625Y-2.7062
X10.3562Y-5.7062
X10.3625Y-2.7062
X10.45Y-4.9563
X10.4562Y-5.7062
X10.55Y-4.9563
X10.6375Y-3.4563
X10.7375Y-3.4563
X10.825Y-4.2063
X10.925Y-4.2063
X11.0125Y-2.7062
X11.1125Y-2.7062
X11.2Y-4.9563
X11.2937Y-5.7062
X11.3Y-4.9563
X11.3875Y-3.4563
X11.3937Y-5.7062
X11.4875Y-3.4563
X11.575Y-4.2063
X11.675Y-4.2063
X11.7625Y-2.7062
X11.8625Y-2.7062
X12.1375Y-3.4563
X12.2312Y-5.7062
X12.2375Y-3.4563
X12.325Y-4.2063
X12.3312Y-5.7062
X12.425Y-4.2063
X12.6063Y-4.9563
X12.7063Y-4.9563
X12.7937Y-4.2063
X12.8875Y-2.7062
X12.8937Y-4.2063
X12.9875Y-2.7062
X13.0187Y-3.9812
X13.0187Y-4.0812
X13.075Y-3.4563
X13.1687Y-5.7062
X13.175Y-3.4563
X13.2687Y-5.7062
T4
X3.08Y-3.285
X3.18Y-3.285
X3.28Y-3.285
X3.38Y-3.285
X6.525Y-5.925
X6.625Y-5.925
X6.725Y-5.925
X6.825Y-5.925
X6.925Y-5.925
X7.025Y-5.925
X7.125Y-5.925
X7.225Y-5.925
X7.995Y-5.93
X8.095Y-5.93
X8.195Y-5.93
X8.295Y-5.93
X8.395Y-5.93
X8.495Y-5.93
T5
X2.7125Y-3.1062
X2.8062Y-6.1063
X2.8063Y-5.3563
X2.9Y-3.8563
X2.9625Y-3.0063
X2.9938Y-4.6063
X3.0562Y-6.0062
X3.0563Y-5.2563
X3.15Y-3.7563
X3.1812Y-5.3563
X3.2438Y-4.5063
X3.4312Y-5.2563
X3.4625Y-3.1062
X3.65Y-5.3563
X3.7125Y-3.0063
X3.7437Y-6.1063
X3.8375Y-3.8563
X3.9Y-5.2563
X3.9937Y-6.0062
X4.025Y-4.6063
X4.0875Y-3.7563
X4.2125Y-3.1062
X4.275Y-4.5063
X4.4Y-5.3563
X4.4625Y-3.0063
X4.5875Y-3.8563
X4.65Y-5.2563
X4.6812Y-6.1063
X4.775Y-4.6063
X4.8375Y-3.7563
X4.9312Y-6.0062
X4.9625Y-3.1062
X5.025Y-4.5063
X5.15Y-5.3563
X5.2125Y-3.0063
X5.3375Y-3.8563
X5.4Y-5.2563
X5.525Y-4.6063
X5.5875Y-3.7563
X5.7125Y-3.1062
X5.775Y-4.5063
X5.9Y-5.3563
X5.9625Y-3.0063
X6.0875Y-3.8563
X6.15Y-5.2563
X6.275Y-4.6063
X6.3375Y-3.7563
X6.4625Y-3.1062
X6.525Y-4.5063
X6.65Y-5.3563
X6.7125Y-3.0063
X6.8375Y-3.8563
X6.9Y-5.2563
X7.025Y-4.6063
X7.0875Y-3.7563
X7.2125Y-3.1062
X7.275Y-4.5063
X7.4Y-5.3563
X7.44Y-5.805
X7.4625Y-3.0063
X7.5875Y-3.8563
X7.65Y-5.2563
X7.69Y-5.705
X7.775Y-4.6063
X7.8375Y-3.7563
X7.9625Y-3.1062
X8.025Y-4.5063
X8.15Y-5.3563
X8.2125Y-3.0063
X8.3375Y-3.8563
X8.4Y-5.2563
X8.525Y-4.6063
X8.5875Y-3.7563
X8.7125Y-3.1062
X8.775Y-4.5063
X8.9Y-5.3563
X8.9625Y-3.0063
X9.0875Y-3.8563
X9.15Y-5.2563
X9.275Y-4.6063
X9.3375Y-3.7563
X9.4625Y-3.1062
X9.525Y-4.5063
X9.65Y-5.3563
X9.7125Y-3.0063
X9.8375Y-3.8563
X9.9Y-5.2563
X10.025Y-4.6063
X10.0875Y-3.7563
X10.2125Y-3.1062
X10.275Y-4.5063
X10.3063Y-6.1063
X10.4Y-5.3563
X10.4625Y-3.0063
X10.5563Y-6.0062
X10.5875Y-3.8563
X10.65Y-5.2563
X10.775Y-4.6063
X10.8375Y-3.7563
X10.9625Y-3.1062
X11.025Y-4.5063
X11.15Y-5.3563
X11.2125Y-3.0063
X11.2438Y-6.1063
X11.3375Y-3.8563
X11.4Y-5.2563
X11.4938Y-6.0062
X11.525Y-4.6063
X11.5875Y-3.7563
X11.7125Y-3.1062
X11.775Y-4.5063
X11.9625Y-3.0063
X12.0875Y-3.8563
X12.1813Y-6.1063
X12.275Y-4.6063
X12.3375Y-3.7563
X12.4313Y-6.0062
X12.525Y-4.5063
X12.5563Y-5.3563
X12.7438Y-4.6063
X12.8063Y-5.2563
X12.8375Y-3.1062
X12.9938Y-4.5063
X13.025Y-3.8563
X13.0875Y-3.0063
X13.1188Y-6.1063
X13.275Y-3.7563
X13.3187Y-3.8813
X13.3688Y-6.0062
X13.4187Y-4.1312
T6
X3.0453Y-2.7165
X3.3327Y-2.7165
T8
X3.4445Y-3.6426
T7
X2.4212Y-4.7686G85X2.5984Y-4.7686
G05
X7.4504Y-4.3945G85X7.5489Y-4.3945
G05
X9.9031Y-5.8985G85X10.0016Y-5.8985
G05
X12.6413Y-3.6426G85X12.7398Y-3.6426
G05
X13.5268Y-4.7686G85X13.704Y-4.7686
G05
T0
M30
