G04 #@! TF.FileFunction,Soldermask,Top*
%FSLAX46Y46*%
G04 Gerber Fmt 4.6, Leading zero omitted, Abs format (unit mm)*
G04 Created by KiCad (PCBNEW 4.0.5-e0-6337~49~ubuntu16.04.1) date Mon Jan 23 14:36:51 2017*
%MOMM*%
%LPD*%
G01*
G04 APERTURE LIST*
%ADD10C,0.150000*%
%ADD11C,2.489200*%
%ADD12C,2.108200*%
%ADD13R,2.108200X2.108200*%
%ADD14O,10.203180X5.204460*%
%ADD15C,7.203440*%
%ADD16C,7.204500*%
%ADD17R,0.953200X1.403200*%
%ADD18R,1.403200X0.953200*%
%ADD19R,1.103200X1.403200*%
%ADD20R,1.103200X1.003200*%
%ADD21R,1.403200X1.103200*%
%ADD22R,2.203200X1.803200*%
%ADD23R,1.903200X1.903200*%
%ADD24O,1.903200X1.903200*%
G04 APERTURE END LIST*
D10*
D11*
X318930020Y-136050020D03*
X325280020Y-133510020D03*
D12*
X194151250Y-155098750D03*
D13*
X191611250Y-155098750D03*
D14*
X345831200Y-121121200D03*
X63748900Y-121121200D03*
D15*
X322339900Y-92520800D03*
X252789400Y-149820700D03*
X190490000Y-111620000D03*
D16*
X87489300Y-92520800D03*
D11*
X80803750Y-136050020D03*
X87153750Y-133510020D03*
X323691250Y-117000020D03*
X330041250Y-114460020D03*
X340836250Y-104933750D03*
X338296250Y-98583750D03*
X326072500Y-78898750D03*
X332422500Y-76358750D03*
X333216250Y-155098750D03*
X339566250Y-152558750D03*
X309403750Y-155098750D03*
X315753750Y-152558750D03*
X285591250Y-155098750D03*
X291941250Y-152558750D03*
X261778750Y-155098750D03*
X268128750Y-152558750D03*
X118903750Y-155098750D03*
X125253750Y-152558750D03*
X95091250Y-155098750D03*
X101441250Y-152558750D03*
X71278750Y-155098750D03*
X77628750Y-152558750D03*
X283210000Y-136050020D03*
X289560000Y-133510020D03*
X264160000Y-136050020D03*
X270510000Y-133510020D03*
X245110000Y-136050020D03*
X251460000Y-133510020D03*
X226060000Y-136050020D03*
X232410000Y-133510020D03*
X207010000Y-136050020D03*
X213360000Y-133510020D03*
X187960000Y-136050020D03*
X194310000Y-133510020D03*
X168910000Y-136050020D03*
X175260000Y-133510020D03*
X149860000Y-136050020D03*
X156210000Y-133510020D03*
X130810000Y-136050020D03*
X137160000Y-133510020D03*
X111760000Y-136050020D03*
X118110000Y-133510020D03*
X92710000Y-136050020D03*
X99060000Y-133510020D03*
X71280020Y-136050020D03*
X77630020Y-133510020D03*
X311785000Y-117000020D03*
X318135000Y-114460020D03*
X292735000Y-117000020D03*
X299085000Y-114460020D03*
X273685000Y-117000020D03*
X280035000Y-114460020D03*
X254635000Y-117000020D03*
X260985000Y-114460020D03*
X235585000Y-117000020D03*
X241935000Y-114460020D03*
X216535000Y-117000020D03*
X222885000Y-114460020D03*
X197485000Y-117000020D03*
X203835000Y-114460020D03*
X178435000Y-117000020D03*
X184785000Y-114460020D03*
X159385000Y-117000020D03*
X165735000Y-114460020D03*
X140335000Y-117000020D03*
X146685000Y-114460020D03*
X121285000Y-117000020D03*
X127635000Y-114460020D03*
X102235000Y-117000020D03*
X108585000Y-114460020D03*
X76042520Y-117000020D03*
X82392520Y-114460020D03*
X330835000Y-97950020D03*
X337185000Y-95410020D03*
X307022500Y-97950020D03*
X313372500Y-95410020D03*
X287972500Y-97950020D03*
X294322500Y-95410020D03*
X268922500Y-97950020D03*
X275272500Y-95410020D03*
X249872500Y-97950020D03*
X256222500Y-95410020D03*
X230822500Y-97950020D03*
X237172500Y-95410020D03*
X211772500Y-97950020D03*
X218122500Y-95410020D03*
X192722500Y-97950020D03*
X199072500Y-95410020D03*
X173672500Y-97950020D03*
X180022500Y-95410020D03*
X154622500Y-97950020D03*
X160972500Y-95410020D03*
X135572500Y-97950020D03*
X141922500Y-95410020D03*
X116522500Y-97950020D03*
X122872500Y-95410020D03*
X97472500Y-97950020D03*
X103822500Y-95410020D03*
X73660000Y-97950020D03*
X80010000Y-95410020D03*
X297497500Y-78898750D03*
X303847500Y-76358750D03*
X278447500Y-78898750D03*
X284797500Y-76358750D03*
X259397500Y-78898750D03*
X265747500Y-76358750D03*
X240347500Y-78898750D03*
X246697500Y-76358750D03*
X221297500Y-78898750D03*
X227647500Y-76358750D03*
X202247500Y-78898750D03*
X208597500Y-76358750D03*
X183197500Y-78898750D03*
X189547500Y-76358750D03*
X145097500Y-78898750D03*
X151447500Y-76358750D03*
X126047500Y-78898750D03*
X132397500Y-76358750D03*
X106997500Y-78898750D03*
X113347500Y-76358750D03*
X87947500Y-78898750D03*
X94297500Y-76358750D03*
X68897500Y-78898750D03*
X75247500Y-76358750D03*
D12*
X337026250Y-144938750D03*
D13*
X334486250Y-144938750D03*
D12*
X322740020Y-125890020D03*
D13*
X320200020Y-125890020D03*
D12*
X327501250Y-106840020D03*
D13*
X324961250Y-106840020D03*
D12*
X330676250Y-101123750D03*
D13*
X330676250Y-103663750D03*
D12*
X334645000Y-87790020D03*
D13*
X332105000Y-87790020D03*
D12*
X329882500Y-68738750D03*
D13*
X327342500Y-68738750D03*
D12*
X313213750Y-144938750D03*
D13*
X310673750Y-144938750D03*
D12*
X315595000Y-106840020D03*
D13*
X313055000Y-106840020D03*
D12*
X310832500Y-87790020D03*
D13*
X308292500Y-87790020D03*
D12*
X301307500Y-68738750D03*
D13*
X298767500Y-68738750D03*
D12*
X289401250Y-144938750D03*
D13*
X286861250Y-144938750D03*
D12*
X287020000Y-125890020D03*
D13*
X284480000Y-125890020D03*
D12*
X296545000Y-106840020D03*
D13*
X294005000Y-106840020D03*
D12*
X291782500Y-87790020D03*
D13*
X289242500Y-87790020D03*
D12*
X282257500Y-68738750D03*
D13*
X279717500Y-68738750D03*
D12*
X265588750Y-144938750D03*
D13*
X263048750Y-144938750D03*
D12*
X267970000Y-125890020D03*
D13*
X265430000Y-125890020D03*
D12*
X277495000Y-106840020D03*
D13*
X274955000Y-106840020D03*
D12*
X272732500Y-87790020D03*
D13*
X270192500Y-87790020D03*
D12*
X263207500Y-68738750D03*
D13*
X260667500Y-68738750D03*
D12*
X248920000Y-125890020D03*
D13*
X246380000Y-125890020D03*
D12*
X258445000Y-106840020D03*
D13*
X255905000Y-106840020D03*
D12*
X253682500Y-87790020D03*
D13*
X251142500Y-87790020D03*
D12*
X244157500Y-68738750D03*
D13*
X241617500Y-68738750D03*
D12*
X229870000Y-125890020D03*
D13*
X227330000Y-125890020D03*
D12*
X239395000Y-106840020D03*
D13*
X236855000Y-106840020D03*
D12*
X234632500Y-87790020D03*
D13*
X232092500Y-87790020D03*
D12*
X225107500Y-68738750D03*
D13*
X222567500Y-68738750D03*
D12*
X210820000Y-125890020D03*
D13*
X208280000Y-125890020D03*
D12*
X220345000Y-106840020D03*
D13*
X217805000Y-106840020D03*
D12*
X215582500Y-87790020D03*
D13*
X213042500Y-87790020D03*
D12*
X206057500Y-68738750D03*
D13*
X203517500Y-68738750D03*
D12*
X191770000Y-125890020D03*
D13*
X189230000Y-125890020D03*
D12*
X201295000Y-106840020D03*
D13*
X198755000Y-106840020D03*
D12*
X196532500Y-87790020D03*
D13*
X193992500Y-87790020D03*
D12*
X187007500Y-68738750D03*
D13*
X184467500Y-68738750D03*
D12*
X172720000Y-125890020D03*
D13*
X170180000Y-125890020D03*
D12*
X182245000Y-106840020D03*
D13*
X179705000Y-106840020D03*
D12*
X177482500Y-87790020D03*
D13*
X174942500Y-87790020D03*
D12*
X167957500Y-68738750D03*
D13*
X165417500Y-68738750D03*
D12*
X153670000Y-125890020D03*
D13*
X151130000Y-125890020D03*
D12*
X163195000Y-106840020D03*
D13*
X160655000Y-106840020D03*
D12*
X158432500Y-87790020D03*
D13*
X155892500Y-87790020D03*
D12*
X148907500Y-68738750D03*
D13*
X146367500Y-68738750D03*
D12*
X134620000Y-125890020D03*
D13*
X132080000Y-125890020D03*
D12*
X144145000Y-106840020D03*
D13*
X141605000Y-106840020D03*
D12*
X139382500Y-87790020D03*
D13*
X136842500Y-87790020D03*
D12*
X129857500Y-68738750D03*
D13*
X127317500Y-68738750D03*
D12*
X122713750Y-144938750D03*
D13*
X120173750Y-144938750D03*
D12*
X115570000Y-125890020D03*
D13*
X113030000Y-125890020D03*
D12*
X125095000Y-106840020D03*
D13*
X122555000Y-106840020D03*
D12*
X120332500Y-87790020D03*
D13*
X117792500Y-87790020D03*
D12*
X110807500Y-68738750D03*
D13*
X108267500Y-68738750D03*
D12*
X98901250Y-144938750D03*
D13*
X96361250Y-144938750D03*
D12*
X96520000Y-125890020D03*
D13*
X93980000Y-125890020D03*
D12*
X106045000Y-106840020D03*
D13*
X103505000Y-106840020D03*
D12*
X101282500Y-87790020D03*
D13*
X98742500Y-87790020D03*
D12*
X91757500Y-68738750D03*
D13*
X89217500Y-68738750D03*
D12*
X75088750Y-144938750D03*
D13*
X72548750Y-144938750D03*
D12*
X84613750Y-125890020D03*
D13*
X82073750Y-125890020D03*
D12*
X75090020Y-125890020D03*
D13*
X72550020Y-125890020D03*
D12*
X77470000Y-87790020D03*
D13*
X74930000Y-87790020D03*
D12*
X72707500Y-68738750D03*
D13*
X70167500Y-68738750D03*
D11*
X164147500Y-78898750D03*
X170497500Y-76358750D03*
D12*
X79883000Y-106807000D03*
D13*
X77343000Y-106807000D03*
D17*
X234950000Y-144079000D03*
X234950000Y-142179000D03*
X233680000Y-144079000D03*
X233680000Y-142179000D03*
D18*
X239207000Y-148336000D03*
X241107000Y-148336000D03*
X239207000Y-149606000D03*
X241107000Y-149606000D03*
D17*
X234823000Y-154625000D03*
X234823000Y-156525000D03*
X236093000Y-154625000D03*
X236093000Y-156525000D03*
X233553000Y-154625000D03*
X233553000Y-156525000D03*
D19*
X230378000Y-155364000D03*
X230378000Y-157564000D03*
X227076000Y-151681000D03*
X227076000Y-153881000D03*
X231775000Y-155364000D03*
X231775000Y-157564000D03*
X224282000Y-151681000D03*
X224282000Y-153881000D03*
X225679000Y-151681000D03*
X225679000Y-153881000D03*
D17*
X173990000Y-147381000D03*
X173990000Y-145481000D03*
X165100000Y-147508000D03*
X165100000Y-145608000D03*
D20*
X167021000Y-145735000D03*
X167021000Y-147635000D03*
X169021000Y-146685000D03*
D11*
X195326000Y-144907000D03*
X188976000Y-147447000D03*
D21*
X171788000Y-143383000D03*
X169588000Y-143383000D03*
D18*
X175961000Y-144399000D03*
X177861000Y-144399000D03*
X150307000Y-151257000D03*
X152207000Y-151257000D03*
X154493000Y-147193000D03*
X152593000Y-147193000D03*
D17*
X154432000Y-151318000D03*
X154432000Y-149418000D03*
X150368000Y-147132000D03*
X150368000Y-149032000D03*
D22*
X219234000Y-148336000D03*
X223234000Y-148336000D03*
D21*
X242232000Y-151638000D03*
X244432000Y-151638000D03*
D23*
X78232000Y-83439000D03*
D24*
X80772000Y-83439000D03*
X83312000Y-83439000D03*
X85852000Y-83439000D03*
D23*
X165735000Y-150495000D03*
D24*
X168275000Y-150495000D03*
X170815000Y-150495000D03*
X173355000Y-150495000D03*
X175895000Y-150495000D03*
X178435000Y-150495000D03*
X180975000Y-150495000D03*
X183515000Y-150495000D03*
D23*
X203073000Y-150622000D03*
D24*
X205613000Y-150622000D03*
X208153000Y-150622000D03*
X210693000Y-150622000D03*
X213233000Y-150622000D03*
X215773000Y-150622000D03*
D17*
X155829000Y-151318000D03*
X155829000Y-149418000D03*
M02*
