G04 #@! TF.FileFunction,Legend,Top*
%FSLAX46Y46*%
G04 Gerber Fmt 4.6, Leading zero omitted, Abs format (unit mm)*
G04 Created by KiCad (PCBNEW 4.0.5-e0-6337~49~ubuntu16.04.1) date Mon Jan 23 14:36:51 2017*
%MOMM*%
%LPD*%
G01*
G04 APERTURE LIST*
%ADD10C,0.150000*%
%ADD11C,0.381000*%
%ADD12C,0.120000*%
%ADD13C,0.203200*%
%ADD14C,0.101600*%
G04 APERTURE END LIST*
D10*
D11*
X327820020Y-137320020D02*
X326042020Y-137320020D01*
X316898020Y-137320020D02*
X315120020Y-137320020D01*
X315120020Y-137320020D02*
X315120020Y-135542020D01*
X315120020Y-126398020D02*
X315120020Y-124620020D01*
X315120020Y-124620020D02*
X316898020Y-124620020D01*
X326042020Y-124620020D02*
X327820020Y-124620020D01*
X327820020Y-124620020D02*
X327820020Y-126398020D01*
X327820020Y-135542020D02*
X327820020Y-137320020D01*
X89693750Y-137320020D02*
X87915750Y-137320020D01*
X78771750Y-137320020D02*
X76993750Y-137320020D01*
X76993750Y-137320020D02*
X76993750Y-135542020D01*
X76993750Y-126398020D02*
X76993750Y-124620020D01*
X76993750Y-124620020D02*
X78771750Y-124620020D01*
X87915750Y-124620020D02*
X89693750Y-124620020D01*
X89693750Y-124620020D02*
X89693750Y-126398020D01*
X89693750Y-135542020D02*
X89693750Y-137320020D01*
X332581250Y-118270020D02*
X330803250Y-118270020D01*
X321659250Y-118270020D02*
X319881250Y-118270020D01*
X319881250Y-118270020D02*
X319881250Y-116492020D01*
X319881250Y-107348020D02*
X319881250Y-105570020D01*
X319881250Y-105570020D02*
X321659250Y-105570020D01*
X330803250Y-105570020D02*
X332581250Y-105570020D01*
X332581250Y-105570020D02*
X332581250Y-107348020D01*
X332581250Y-116492020D02*
X332581250Y-118270020D01*
X342106250Y-96043750D02*
X342106250Y-97821750D01*
X342106250Y-106965750D02*
X342106250Y-108743750D01*
X342106250Y-108743750D02*
X340328250Y-108743750D01*
X331184250Y-108743750D02*
X329406250Y-108743750D01*
X329406250Y-108743750D02*
X329406250Y-106965750D01*
X329406250Y-97821750D02*
X329406250Y-96043750D01*
X329406250Y-96043750D02*
X331184250Y-96043750D01*
X340328250Y-96043750D02*
X342106250Y-96043750D01*
X334962500Y-80168750D02*
X333184500Y-80168750D01*
X324040500Y-80168750D02*
X322262500Y-80168750D01*
X322262500Y-80168750D02*
X322262500Y-78390750D01*
X322262500Y-69246750D02*
X322262500Y-67468750D01*
X322262500Y-67468750D02*
X324040500Y-67468750D01*
X333184500Y-67468750D02*
X334962500Y-67468750D01*
X334962500Y-67468750D02*
X334962500Y-69246750D01*
X334962500Y-78390750D02*
X334962500Y-80168750D01*
X342106250Y-156368750D02*
X340328250Y-156368750D01*
X331184250Y-156368750D02*
X329406250Y-156368750D01*
X329406250Y-156368750D02*
X329406250Y-154590750D01*
X329406250Y-145446750D02*
X329406250Y-143668750D01*
X329406250Y-143668750D02*
X331184250Y-143668750D01*
X340328250Y-143668750D02*
X342106250Y-143668750D01*
X342106250Y-143668750D02*
X342106250Y-145446750D01*
X342106250Y-154590750D02*
X342106250Y-156368750D01*
X318293750Y-156368750D02*
X316515750Y-156368750D01*
X307371750Y-156368750D02*
X305593750Y-156368750D01*
X305593750Y-156368750D02*
X305593750Y-154590750D01*
X305593750Y-145446750D02*
X305593750Y-143668750D01*
X305593750Y-143668750D02*
X307371750Y-143668750D01*
X316515750Y-143668750D02*
X318293750Y-143668750D01*
X318293750Y-143668750D02*
X318293750Y-145446750D01*
X318293750Y-154590750D02*
X318293750Y-156368750D01*
X294481250Y-156368750D02*
X292703250Y-156368750D01*
X283559250Y-156368750D02*
X281781250Y-156368750D01*
X281781250Y-156368750D02*
X281781250Y-154590750D01*
X281781250Y-145446750D02*
X281781250Y-143668750D01*
X281781250Y-143668750D02*
X283559250Y-143668750D01*
X292703250Y-143668750D02*
X294481250Y-143668750D01*
X294481250Y-143668750D02*
X294481250Y-145446750D01*
X294481250Y-154590750D02*
X294481250Y-156368750D01*
X270668750Y-156368750D02*
X268890750Y-156368750D01*
X259746750Y-156368750D02*
X257968750Y-156368750D01*
X257968750Y-156368750D02*
X257968750Y-154590750D01*
X257968750Y-145446750D02*
X257968750Y-143668750D01*
X257968750Y-143668750D02*
X259746750Y-143668750D01*
X268890750Y-143668750D02*
X270668750Y-143668750D01*
X270668750Y-143668750D02*
X270668750Y-145446750D01*
X270668750Y-154590750D02*
X270668750Y-156368750D01*
X127793750Y-156368750D02*
X126015750Y-156368750D01*
X116871750Y-156368750D02*
X115093750Y-156368750D01*
X115093750Y-156368750D02*
X115093750Y-154590750D01*
X115093750Y-145446750D02*
X115093750Y-143668750D01*
X115093750Y-143668750D02*
X116871750Y-143668750D01*
X126015750Y-143668750D02*
X127793750Y-143668750D01*
X127793750Y-143668750D02*
X127793750Y-145446750D01*
X127793750Y-154590750D02*
X127793750Y-156368750D01*
X103981250Y-156368750D02*
X102203250Y-156368750D01*
X93059250Y-156368750D02*
X91281250Y-156368750D01*
X91281250Y-156368750D02*
X91281250Y-154590750D01*
X91281250Y-145446750D02*
X91281250Y-143668750D01*
X91281250Y-143668750D02*
X93059250Y-143668750D01*
X102203250Y-143668750D02*
X103981250Y-143668750D01*
X103981250Y-143668750D02*
X103981250Y-145446750D01*
X103981250Y-154590750D02*
X103981250Y-156368750D01*
X80168750Y-156368750D02*
X78390750Y-156368750D01*
X69246750Y-156368750D02*
X67468750Y-156368750D01*
X67468750Y-156368750D02*
X67468750Y-154590750D01*
X67468750Y-145446750D02*
X67468750Y-143668750D01*
X67468750Y-143668750D02*
X69246750Y-143668750D01*
X78390750Y-143668750D02*
X80168750Y-143668750D01*
X80168750Y-143668750D02*
X80168750Y-145446750D01*
X80168750Y-154590750D02*
X80168750Y-156368750D01*
X292100000Y-137320020D02*
X290322000Y-137320020D01*
X281178000Y-137320020D02*
X279400000Y-137320020D01*
X279400000Y-137320020D02*
X279400000Y-135542020D01*
X279400000Y-126398020D02*
X279400000Y-124620020D01*
X279400000Y-124620020D02*
X281178000Y-124620020D01*
X290322000Y-124620020D02*
X292100000Y-124620020D01*
X292100000Y-124620020D02*
X292100000Y-126398020D01*
X292100000Y-135542020D02*
X292100000Y-137320020D01*
X273050000Y-137320020D02*
X271272000Y-137320020D01*
X262128000Y-137320020D02*
X260350000Y-137320020D01*
X260350000Y-137320020D02*
X260350000Y-135542020D01*
X260350000Y-126398020D02*
X260350000Y-124620020D01*
X260350000Y-124620020D02*
X262128000Y-124620020D01*
X271272000Y-124620020D02*
X273050000Y-124620020D01*
X273050000Y-124620020D02*
X273050000Y-126398020D01*
X273050000Y-135542020D02*
X273050000Y-137320020D01*
X254000000Y-137320020D02*
X252222000Y-137320020D01*
X243078000Y-137320020D02*
X241300000Y-137320020D01*
X241300000Y-137320020D02*
X241300000Y-135542020D01*
X241300000Y-126398020D02*
X241300000Y-124620020D01*
X241300000Y-124620020D02*
X243078000Y-124620020D01*
X252222000Y-124620020D02*
X254000000Y-124620020D01*
X254000000Y-124620020D02*
X254000000Y-126398020D01*
X254000000Y-135542020D02*
X254000000Y-137320020D01*
X234950000Y-137320020D02*
X233172000Y-137320020D01*
X224028000Y-137320020D02*
X222250000Y-137320020D01*
X222250000Y-137320020D02*
X222250000Y-135542020D01*
X222250000Y-126398020D02*
X222250000Y-124620020D01*
X222250000Y-124620020D02*
X224028000Y-124620020D01*
X233172000Y-124620020D02*
X234950000Y-124620020D01*
X234950000Y-124620020D02*
X234950000Y-126398020D01*
X234950000Y-135542020D02*
X234950000Y-137320020D01*
X215900000Y-137320020D02*
X214122000Y-137320020D01*
X204978000Y-137320020D02*
X203200000Y-137320020D01*
X203200000Y-137320020D02*
X203200000Y-135542020D01*
X203200000Y-126398020D02*
X203200000Y-124620020D01*
X203200000Y-124620020D02*
X204978000Y-124620020D01*
X214122000Y-124620020D02*
X215900000Y-124620020D01*
X215900000Y-124620020D02*
X215900000Y-126398020D01*
X215900000Y-135542020D02*
X215900000Y-137320020D01*
X196850000Y-137320020D02*
X195072000Y-137320020D01*
X185928000Y-137320020D02*
X184150000Y-137320020D01*
X184150000Y-137320020D02*
X184150000Y-135542020D01*
X184150000Y-126398020D02*
X184150000Y-124620020D01*
X184150000Y-124620020D02*
X185928000Y-124620020D01*
X195072000Y-124620020D02*
X196850000Y-124620020D01*
X196850000Y-124620020D02*
X196850000Y-126398020D01*
X196850000Y-135542020D02*
X196850000Y-137320020D01*
X177800000Y-137320020D02*
X176022000Y-137320020D01*
X166878000Y-137320020D02*
X165100000Y-137320020D01*
X165100000Y-137320020D02*
X165100000Y-135542020D01*
X165100000Y-126398020D02*
X165100000Y-124620020D01*
X165100000Y-124620020D02*
X166878000Y-124620020D01*
X176022000Y-124620020D02*
X177800000Y-124620020D01*
X177800000Y-124620020D02*
X177800000Y-126398020D01*
X177800000Y-135542020D02*
X177800000Y-137320020D01*
X158750000Y-137320020D02*
X156972000Y-137320020D01*
X147828000Y-137320020D02*
X146050000Y-137320020D01*
X146050000Y-137320020D02*
X146050000Y-135542020D01*
X146050000Y-126398020D02*
X146050000Y-124620020D01*
X146050000Y-124620020D02*
X147828000Y-124620020D01*
X156972000Y-124620020D02*
X158750000Y-124620020D01*
X158750000Y-124620020D02*
X158750000Y-126398020D01*
X158750000Y-135542020D02*
X158750000Y-137320020D01*
X139700000Y-137320020D02*
X137922000Y-137320020D01*
X128778000Y-137320020D02*
X127000000Y-137320020D01*
X127000000Y-137320020D02*
X127000000Y-135542020D01*
X127000000Y-126398020D02*
X127000000Y-124620020D01*
X127000000Y-124620020D02*
X128778000Y-124620020D01*
X137922000Y-124620020D02*
X139700000Y-124620020D01*
X139700000Y-124620020D02*
X139700000Y-126398020D01*
X139700000Y-135542020D02*
X139700000Y-137320020D01*
X120650000Y-137320020D02*
X118872000Y-137320020D01*
X109728000Y-137320020D02*
X107950000Y-137320020D01*
X107950000Y-137320020D02*
X107950000Y-135542020D01*
X107950000Y-126398020D02*
X107950000Y-124620020D01*
X107950000Y-124620020D02*
X109728000Y-124620020D01*
X118872000Y-124620020D02*
X120650000Y-124620020D01*
X120650000Y-124620020D02*
X120650000Y-126398020D01*
X120650000Y-135542020D02*
X120650000Y-137320020D01*
X101600000Y-137320020D02*
X99822000Y-137320020D01*
X90678000Y-137320020D02*
X88900000Y-137320020D01*
X88900000Y-137320020D02*
X88900000Y-135542020D01*
X88900000Y-126398020D02*
X88900000Y-124620020D01*
X88900000Y-124620020D02*
X90678000Y-124620020D01*
X99822000Y-124620020D02*
X101600000Y-124620020D01*
X101600000Y-124620020D02*
X101600000Y-126398020D01*
X101600000Y-135542020D02*
X101600000Y-137320020D01*
X80170020Y-137320020D02*
X78392020Y-137320020D01*
X69248020Y-137320020D02*
X67470020Y-137320020D01*
X67470020Y-137320020D02*
X67470020Y-135542020D01*
X67470020Y-126398020D02*
X67470020Y-124620020D01*
X67470020Y-124620020D02*
X69248020Y-124620020D01*
X78392020Y-124620020D02*
X80170020Y-124620020D01*
X80170020Y-124620020D02*
X80170020Y-126398020D01*
X80170020Y-135542020D02*
X80170020Y-137320020D01*
X320675000Y-118270020D02*
X318897000Y-118270020D01*
X309753000Y-118270020D02*
X307975000Y-118270020D01*
X307975000Y-118270020D02*
X307975000Y-116492020D01*
X307975000Y-107348020D02*
X307975000Y-105570020D01*
X307975000Y-105570020D02*
X309753000Y-105570020D01*
X318897000Y-105570020D02*
X320675000Y-105570020D01*
X320675000Y-105570020D02*
X320675000Y-107348020D01*
X320675000Y-116492020D02*
X320675000Y-118270020D01*
X301625000Y-118270020D02*
X299847000Y-118270020D01*
X290703000Y-118270020D02*
X288925000Y-118270020D01*
X288925000Y-118270020D02*
X288925000Y-116492020D01*
X288925000Y-107348020D02*
X288925000Y-105570020D01*
X288925000Y-105570020D02*
X290703000Y-105570020D01*
X299847000Y-105570020D02*
X301625000Y-105570020D01*
X301625000Y-105570020D02*
X301625000Y-107348020D01*
X301625000Y-116492020D02*
X301625000Y-118270020D01*
X282575000Y-118270020D02*
X280797000Y-118270020D01*
X271653000Y-118270020D02*
X269875000Y-118270020D01*
X269875000Y-118270020D02*
X269875000Y-116492020D01*
X269875000Y-107348020D02*
X269875000Y-105570020D01*
X269875000Y-105570020D02*
X271653000Y-105570020D01*
X280797000Y-105570020D02*
X282575000Y-105570020D01*
X282575000Y-105570020D02*
X282575000Y-107348020D01*
X282575000Y-116492020D02*
X282575000Y-118270020D01*
X263525000Y-118270020D02*
X261747000Y-118270020D01*
X252603000Y-118270020D02*
X250825000Y-118270020D01*
X250825000Y-118270020D02*
X250825000Y-116492020D01*
X250825000Y-107348020D02*
X250825000Y-105570020D01*
X250825000Y-105570020D02*
X252603000Y-105570020D01*
X261747000Y-105570020D02*
X263525000Y-105570020D01*
X263525000Y-105570020D02*
X263525000Y-107348020D01*
X263525000Y-116492020D02*
X263525000Y-118270020D01*
X244475000Y-118270020D02*
X242697000Y-118270020D01*
X233553000Y-118270020D02*
X231775000Y-118270020D01*
X231775000Y-118270020D02*
X231775000Y-116492020D01*
X231775000Y-107348020D02*
X231775000Y-105570020D01*
X231775000Y-105570020D02*
X233553000Y-105570020D01*
X242697000Y-105570020D02*
X244475000Y-105570020D01*
X244475000Y-105570020D02*
X244475000Y-107348020D01*
X244475000Y-116492020D02*
X244475000Y-118270020D01*
X225425000Y-118270020D02*
X223647000Y-118270020D01*
X214503000Y-118270020D02*
X212725000Y-118270020D01*
X212725000Y-118270020D02*
X212725000Y-116492020D01*
X212725000Y-107348020D02*
X212725000Y-105570020D01*
X212725000Y-105570020D02*
X214503000Y-105570020D01*
X223647000Y-105570020D02*
X225425000Y-105570020D01*
X225425000Y-105570020D02*
X225425000Y-107348020D01*
X225425000Y-116492020D02*
X225425000Y-118270020D01*
X206375000Y-118270020D02*
X204597000Y-118270020D01*
X195453000Y-118270020D02*
X193675000Y-118270020D01*
X193675000Y-118270020D02*
X193675000Y-116492020D01*
X193675000Y-107348020D02*
X193675000Y-105570020D01*
X193675000Y-105570020D02*
X195453000Y-105570020D01*
X204597000Y-105570020D02*
X206375000Y-105570020D01*
X206375000Y-105570020D02*
X206375000Y-107348020D01*
X206375000Y-116492020D02*
X206375000Y-118270020D01*
X187325000Y-118270020D02*
X185547000Y-118270020D01*
X176403000Y-118270020D02*
X174625000Y-118270020D01*
X174625000Y-118270020D02*
X174625000Y-116492020D01*
X174625000Y-107348020D02*
X174625000Y-105570020D01*
X174625000Y-105570020D02*
X176403000Y-105570020D01*
X185547000Y-105570020D02*
X187325000Y-105570020D01*
X187325000Y-105570020D02*
X187325000Y-107348020D01*
X187325000Y-116492020D02*
X187325000Y-118270020D01*
X168275000Y-118270020D02*
X166497000Y-118270020D01*
X157353000Y-118270020D02*
X155575000Y-118270020D01*
X155575000Y-118270020D02*
X155575000Y-116492020D01*
X155575000Y-107348020D02*
X155575000Y-105570020D01*
X155575000Y-105570020D02*
X157353000Y-105570020D01*
X166497000Y-105570020D02*
X168275000Y-105570020D01*
X168275000Y-105570020D02*
X168275000Y-107348020D01*
X168275000Y-116492020D02*
X168275000Y-118270020D01*
X149225000Y-118270020D02*
X147447000Y-118270020D01*
X138303000Y-118270020D02*
X136525000Y-118270020D01*
X136525000Y-118270020D02*
X136525000Y-116492020D01*
X136525000Y-107348020D02*
X136525000Y-105570020D01*
X136525000Y-105570020D02*
X138303000Y-105570020D01*
X147447000Y-105570020D02*
X149225000Y-105570020D01*
X149225000Y-105570020D02*
X149225000Y-107348020D01*
X149225000Y-116492020D02*
X149225000Y-118270020D01*
X130175000Y-118270020D02*
X128397000Y-118270020D01*
X119253000Y-118270020D02*
X117475000Y-118270020D01*
X117475000Y-118270020D02*
X117475000Y-116492020D01*
X117475000Y-107348020D02*
X117475000Y-105570020D01*
X117475000Y-105570020D02*
X119253000Y-105570020D01*
X128397000Y-105570020D02*
X130175000Y-105570020D01*
X130175000Y-105570020D02*
X130175000Y-107348020D01*
X130175000Y-116492020D02*
X130175000Y-118270020D01*
X111125000Y-118270020D02*
X109347000Y-118270020D01*
X100203000Y-118270020D02*
X98425000Y-118270020D01*
X98425000Y-118270020D02*
X98425000Y-116492020D01*
X98425000Y-107348020D02*
X98425000Y-105570020D01*
X98425000Y-105570020D02*
X100203000Y-105570020D01*
X109347000Y-105570020D02*
X111125000Y-105570020D01*
X111125000Y-105570020D02*
X111125000Y-107348020D01*
X111125000Y-116492020D02*
X111125000Y-118270020D01*
X84932520Y-118270020D02*
X83154520Y-118270020D01*
X74010520Y-118270020D02*
X72232520Y-118270020D01*
X72232520Y-118270020D02*
X72232520Y-116492020D01*
X72232520Y-107348020D02*
X72232520Y-105570020D01*
X72232520Y-105570020D02*
X74010520Y-105570020D01*
X83154520Y-105570020D02*
X84932520Y-105570020D01*
X84932520Y-105570020D02*
X84932520Y-107348020D01*
X84932520Y-116492020D02*
X84932520Y-118270020D01*
X339725000Y-99220020D02*
X337947000Y-99220020D01*
X328803000Y-99220020D02*
X327025000Y-99220020D01*
X327025000Y-99220020D02*
X327025000Y-97442020D01*
X327025000Y-88298020D02*
X327025000Y-86520020D01*
X327025000Y-86520020D02*
X328803000Y-86520020D01*
X337947000Y-86520020D02*
X339725000Y-86520020D01*
X339725000Y-86520020D02*
X339725000Y-88298020D01*
X339725000Y-97442020D02*
X339725000Y-99220020D01*
X315912500Y-99220020D02*
X314134500Y-99220020D01*
X304990500Y-99220020D02*
X303212500Y-99220020D01*
X303212500Y-99220020D02*
X303212500Y-97442020D01*
X303212500Y-88298020D02*
X303212500Y-86520020D01*
X303212500Y-86520020D02*
X304990500Y-86520020D01*
X314134500Y-86520020D02*
X315912500Y-86520020D01*
X315912500Y-86520020D02*
X315912500Y-88298020D01*
X315912500Y-97442020D02*
X315912500Y-99220020D01*
X296862500Y-99220020D02*
X295084500Y-99220020D01*
X285940500Y-99220020D02*
X284162500Y-99220020D01*
X284162500Y-99220020D02*
X284162500Y-97442020D01*
X284162500Y-88298020D02*
X284162500Y-86520020D01*
X284162500Y-86520020D02*
X285940500Y-86520020D01*
X295084500Y-86520020D02*
X296862500Y-86520020D01*
X296862500Y-86520020D02*
X296862500Y-88298020D01*
X296862500Y-97442020D02*
X296862500Y-99220020D01*
X277812500Y-99220020D02*
X276034500Y-99220020D01*
X266890500Y-99220020D02*
X265112500Y-99220020D01*
X265112500Y-99220020D02*
X265112500Y-97442020D01*
X265112500Y-88298020D02*
X265112500Y-86520020D01*
X265112500Y-86520020D02*
X266890500Y-86520020D01*
X276034500Y-86520020D02*
X277812500Y-86520020D01*
X277812500Y-86520020D02*
X277812500Y-88298020D01*
X277812500Y-97442020D02*
X277812500Y-99220020D01*
X258762500Y-99220020D02*
X256984500Y-99220020D01*
X247840500Y-99220020D02*
X246062500Y-99220020D01*
X246062500Y-99220020D02*
X246062500Y-97442020D01*
X246062500Y-88298020D02*
X246062500Y-86520020D01*
X246062500Y-86520020D02*
X247840500Y-86520020D01*
X256984500Y-86520020D02*
X258762500Y-86520020D01*
X258762500Y-86520020D02*
X258762500Y-88298020D01*
X258762500Y-97442020D02*
X258762500Y-99220020D01*
X239712500Y-99220020D02*
X237934500Y-99220020D01*
X228790500Y-99220020D02*
X227012500Y-99220020D01*
X227012500Y-99220020D02*
X227012500Y-97442020D01*
X227012500Y-88298020D02*
X227012500Y-86520020D01*
X227012500Y-86520020D02*
X228790500Y-86520020D01*
X237934500Y-86520020D02*
X239712500Y-86520020D01*
X239712500Y-86520020D02*
X239712500Y-88298020D01*
X239712500Y-97442020D02*
X239712500Y-99220020D01*
X220662500Y-99220020D02*
X218884500Y-99220020D01*
X209740500Y-99220020D02*
X207962500Y-99220020D01*
X207962500Y-99220020D02*
X207962500Y-97442020D01*
X207962500Y-88298020D02*
X207962500Y-86520020D01*
X207962500Y-86520020D02*
X209740500Y-86520020D01*
X218884500Y-86520020D02*
X220662500Y-86520020D01*
X220662500Y-86520020D02*
X220662500Y-88298020D01*
X220662500Y-97442020D02*
X220662500Y-99220020D01*
X201612500Y-99220020D02*
X199834500Y-99220020D01*
X190690500Y-99220020D02*
X188912500Y-99220020D01*
X188912500Y-99220020D02*
X188912500Y-97442020D01*
X188912500Y-88298020D02*
X188912500Y-86520020D01*
X188912500Y-86520020D02*
X190690500Y-86520020D01*
X199834500Y-86520020D02*
X201612500Y-86520020D01*
X201612500Y-86520020D02*
X201612500Y-88298020D01*
X201612500Y-97442020D02*
X201612500Y-99220020D01*
X182562500Y-99220020D02*
X180784500Y-99220020D01*
X171640500Y-99220020D02*
X169862500Y-99220020D01*
X169862500Y-99220020D02*
X169862500Y-97442020D01*
X169862500Y-88298020D02*
X169862500Y-86520020D01*
X169862500Y-86520020D02*
X171640500Y-86520020D01*
X180784500Y-86520020D02*
X182562500Y-86520020D01*
X182562500Y-86520020D02*
X182562500Y-88298020D01*
X182562500Y-97442020D02*
X182562500Y-99220020D01*
X163512500Y-99220020D02*
X161734500Y-99220020D01*
X152590500Y-99220020D02*
X150812500Y-99220020D01*
X150812500Y-99220020D02*
X150812500Y-97442020D01*
X150812500Y-88298020D02*
X150812500Y-86520020D01*
X150812500Y-86520020D02*
X152590500Y-86520020D01*
X161734500Y-86520020D02*
X163512500Y-86520020D01*
X163512500Y-86520020D02*
X163512500Y-88298020D01*
X163512500Y-97442020D02*
X163512500Y-99220020D01*
X144462500Y-99220020D02*
X142684500Y-99220020D01*
X133540500Y-99220020D02*
X131762500Y-99220020D01*
X131762500Y-99220020D02*
X131762500Y-97442020D01*
X131762500Y-88298020D02*
X131762500Y-86520020D01*
X131762500Y-86520020D02*
X133540500Y-86520020D01*
X142684500Y-86520020D02*
X144462500Y-86520020D01*
X144462500Y-86520020D02*
X144462500Y-88298020D01*
X144462500Y-97442020D02*
X144462500Y-99220020D01*
X125412500Y-99220020D02*
X123634500Y-99220020D01*
X114490500Y-99220020D02*
X112712500Y-99220020D01*
X112712500Y-99220020D02*
X112712500Y-97442020D01*
X112712500Y-88298020D02*
X112712500Y-86520020D01*
X112712500Y-86520020D02*
X114490500Y-86520020D01*
X123634500Y-86520020D02*
X125412500Y-86520020D01*
X125412500Y-86520020D02*
X125412500Y-88298020D01*
X125412500Y-97442020D02*
X125412500Y-99220020D01*
X106362500Y-99220020D02*
X104584500Y-99220020D01*
X95440500Y-99220020D02*
X93662500Y-99220020D01*
X93662500Y-99220020D02*
X93662500Y-97442020D01*
X93662500Y-88298020D02*
X93662500Y-86520020D01*
X93662500Y-86520020D02*
X95440500Y-86520020D01*
X104584500Y-86520020D02*
X106362500Y-86520020D01*
X106362500Y-86520020D02*
X106362500Y-88298020D01*
X106362500Y-97442020D02*
X106362500Y-99220020D01*
X82550000Y-99220020D02*
X80772000Y-99220020D01*
X71628000Y-99220020D02*
X69850000Y-99220020D01*
X69850000Y-99220020D02*
X69850000Y-97442020D01*
X69850000Y-88298020D02*
X69850000Y-86520020D01*
X69850000Y-86520020D02*
X71628000Y-86520020D01*
X80772000Y-86520020D02*
X82550000Y-86520020D01*
X82550000Y-86520020D02*
X82550000Y-88298020D01*
X82550000Y-97442020D02*
X82550000Y-99220020D01*
X306387500Y-80168750D02*
X304609500Y-80168750D01*
X295465500Y-80168750D02*
X293687500Y-80168750D01*
X293687500Y-80168750D02*
X293687500Y-78390750D01*
X293687500Y-69246750D02*
X293687500Y-67468750D01*
X293687500Y-67468750D02*
X295465500Y-67468750D01*
X304609500Y-67468750D02*
X306387500Y-67468750D01*
X306387500Y-67468750D02*
X306387500Y-69246750D01*
X306387500Y-78390750D02*
X306387500Y-80168750D01*
X287337500Y-80168750D02*
X285559500Y-80168750D01*
X276415500Y-80168750D02*
X274637500Y-80168750D01*
X274637500Y-80168750D02*
X274637500Y-78390750D01*
X274637500Y-69246750D02*
X274637500Y-67468750D01*
X274637500Y-67468750D02*
X276415500Y-67468750D01*
X285559500Y-67468750D02*
X287337500Y-67468750D01*
X287337500Y-67468750D02*
X287337500Y-69246750D01*
X287337500Y-78390750D02*
X287337500Y-80168750D01*
X268287500Y-80168750D02*
X266509500Y-80168750D01*
X257365500Y-80168750D02*
X255587500Y-80168750D01*
X255587500Y-80168750D02*
X255587500Y-78390750D01*
X255587500Y-69246750D02*
X255587500Y-67468750D01*
X255587500Y-67468750D02*
X257365500Y-67468750D01*
X266509500Y-67468750D02*
X268287500Y-67468750D01*
X268287500Y-67468750D02*
X268287500Y-69246750D01*
X268287500Y-78390750D02*
X268287500Y-80168750D01*
X249237500Y-80168750D02*
X247459500Y-80168750D01*
X238315500Y-80168750D02*
X236537500Y-80168750D01*
X236537500Y-80168750D02*
X236537500Y-78390750D01*
X236537500Y-69246750D02*
X236537500Y-67468750D01*
X236537500Y-67468750D02*
X238315500Y-67468750D01*
X247459500Y-67468750D02*
X249237500Y-67468750D01*
X249237500Y-67468750D02*
X249237500Y-69246750D01*
X249237500Y-78390750D02*
X249237500Y-80168750D01*
X230187500Y-80168750D02*
X228409500Y-80168750D01*
X219265500Y-80168750D02*
X217487500Y-80168750D01*
X217487500Y-80168750D02*
X217487500Y-78390750D01*
X217487500Y-69246750D02*
X217487500Y-67468750D01*
X217487500Y-67468750D02*
X219265500Y-67468750D01*
X228409500Y-67468750D02*
X230187500Y-67468750D01*
X230187500Y-67468750D02*
X230187500Y-69246750D01*
X230187500Y-78390750D02*
X230187500Y-80168750D01*
X211137500Y-80168750D02*
X209359500Y-80168750D01*
X200215500Y-80168750D02*
X198437500Y-80168750D01*
X198437500Y-80168750D02*
X198437500Y-78390750D01*
X198437500Y-69246750D02*
X198437500Y-67468750D01*
X198437500Y-67468750D02*
X200215500Y-67468750D01*
X209359500Y-67468750D02*
X211137500Y-67468750D01*
X211137500Y-67468750D02*
X211137500Y-69246750D01*
X211137500Y-78390750D02*
X211137500Y-80168750D01*
X192087500Y-80168750D02*
X190309500Y-80168750D01*
X181165500Y-80168750D02*
X179387500Y-80168750D01*
X179387500Y-80168750D02*
X179387500Y-78390750D01*
X179387500Y-69246750D02*
X179387500Y-67468750D01*
X179387500Y-67468750D02*
X181165500Y-67468750D01*
X190309500Y-67468750D02*
X192087500Y-67468750D01*
X192087500Y-67468750D02*
X192087500Y-69246750D01*
X192087500Y-78390750D02*
X192087500Y-80168750D01*
X153987500Y-80168750D02*
X152209500Y-80168750D01*
X143065500Y-80168750D02*
X141287500Y-80168750D01*
X141287500Y-80168750D02*
X141287500Y-78390750D01*
X141287500Y-69246750D02*
X141287500Y-67468750D01*
X141287500Y-67468750D02*
X143065500Y-67468750D01*
X152209500Y-67468750D02*
X153987500Y-67468750D01*
X153987500Y-67468750D02*
X153987500Y-69246750D01*
X153987500Y-78390750D02*
X153987500Y-80168750D01*
X134937500Y-80168750D02*
X133159500Y-80168750D01*
X124015500Y-80168750D02*
X122237500Y-80168750D01*
X122237500Y-80168750D02*
X122237500Y-78390750D01*
X122237500Y-69246750D02*
X122237500Y-67468750D01*
X122237500Y-67468750D02*
X124015500Y-67468750D01*
X133159500Y-67468750D02*
X134937500Y-67468750D01*
X134937500Y-67468750D02*
X134937500Y-69246750D01*
X134937500Y-78390750D02*
X134937500Y-80168750D01*
X115887500Y-80168750D02*
X114109500Y-80168750D01*
X104965500Y-80168750D02*
X103187500Y-80168750D01*
X103187500Y-80168750D02*
X103187500Y-78390750D01*
X103187500Y-69246750D02*
X103187500Y-67468750D01*
X103187500Y-67468750D02*
X104965500Y-67468750D01*
X114109500Y-67468750D02*
X115887500Y-67468750D01*
X115887500Y-67468750D02*
X115887500Y-69246750D01*
X115887500Y-78390750D02*
X115887500Y-80168750D01*
X96837500Y-80168750D02*
X95059500Y-80168750D01*
X85915500Y-80168750D02*
X84137500Y-80168750D01*
X84137500Y-80168750D02*
X84137500Y-78390750D01*
X84137500Y-69246750D02*
X84137500Y-67468750D01*
X84137500Y-67468750D02*
X85915500Y-67468750D01*
X95059500Y-67468750D02*
X96837500Y-67468750D01*
X96837500Y-67468750D02*
X96837500Y-69246750D01*
X96837500Y-78390750D02*
X96837500Y-80168750D01*
X77787500Y-80168750D02*
X76009500Y-80168750D01*
X66865500Y-80168750D02*
X65087500Y-80168750D01*
X65087500Y-80168750D02*
X65087500Y-78390750D01*
X65087500Y-69246750D02*
X65087500Y-67468750D01*
X65087500Y-67468750D02*
X66865500Y-67468750D01*
X76009500Y-67468750D02*
X77787500Y-67468750D01*
X77787500Y-67468750D02*
X77787500Y-69246750D01*
X77787500Y-78390750D02*
X77787500Y-80168750D01*
X173037500Y-80168750D02*
X171259500Y-80168750D01*
X162115500Y-80168750D02*
X160337500Y-80168750D01*
X160337500Y-80168750D02*
X160337500Y-78390750D01*
X160337500Y-69246750D02*
X160337500Y-67468750D01*
X160337500Y-67468750D02*
X162115500Y-67468750D01*
X171259500Y-67468750D02*
X173037500Y-67468750D01*
X173037500Y-67468750D02*
X173037500Y-69246750D01*
X173037500Y-78390750D02*
X173037500Y-80168750D01*
D10*
X234350000Y-143479000D02*
X234350000Y-142779000D01*
X235550000Y-142779000D02*
X235550000Y-143479000D01*
X233080000Y-143479000D02*
X233080000Y-142779000D01*
X234280000Y-142779000D02*
X234280000Y-143479000D01*
X239807000Y-147736000D02*
X240507000Y-147736000D01*
X240507000Y-148936000D02*
X239807000Y-148936000D01*
X239807000Y-149006000D02*
X240507000Y-149006000D01*
X240507000Y-150206000D02*
X239807000Y-150206000D01*
X235423000Y-155225000D02*
X235423000Y-155925000D01*
X234223000Y-155925000D02*
X234223000Y-155225000D01*
X236693000Y-155225000D02*
X236693000Y-155925000D01*
X235493000Y-155925000D02*
X235493000Y-155225000D01*
X234153000Y-155225000D02*
X234153000Y-155925000D01*
X232953000Y-155925000D02*
X232953000Y-155225000D01*
X229703000Y-156964000D02*
X229703000Y-155964000D01*
X231053000Y-155964000D02*
X231053000Y-156964000D01*
X226401000Y-153281000D02*
X226401000Y-152281000D01*
X227751000Y-152281000D02*
X227751000Y-153281000D01*
X231100000Y-156964000D02*
X231100000Y-155964000D01*
X232450000Y-155964000D02*
X232450000Y-156964000D01*
X223607000Y-153281000D02*
X223607000Y-152281000D01*
X224957000Y-152281000D02*
X224957000Y-153281000D01*
X225004000Y-153281000D02*
X225004000Y-152281000D01*
X226354000Y-152281000D02*
X226354000Y-153281000D01*
X173390000Y-146781000D02*
X173390000Y-146081000D01*
X174590000Y-146081000D02*
X174590000Y-146781000D01*
X164500000Y-146908000D02*
X164500000Y-146208000D01*
X165700000Y-146208000D02*
X165700000Y-146908000D01*
D12*
X168781000Y-148265000D02*
X168781000Y-147335000D01*
X168781000Y-145105000D02*
X168781000Y-146035000D01*
X168781000Y-145105000D02*
X166621000Y-145105000D01*
X168781000Y-148265000D02*
X167321000Y-148265000D01*
D11*
X186436000Y-143637000D02*
X188214000Y-143637000D01*
X197358000Y-143637000D02*
X199136000Y-143637000D01*
X199136000Y-143637000D02*
X199136000Y-145415000D01*
X199136000Y-154559000D02*
X199136000Y-156337000D01*
X199136000Y-156337000D02*
X197358000Y-156337000D01*
X188214000Y-156337000D02*
X186436000Y-156337000D01*
X186436000Y-156337000D02*
X186436000Y-154559000D01*
X186436000Y-145415000D02*
X186436000Y-143637000D01*
D10*
X170188000Y-142708000D02*
X171188000Y-142708000D01*
X171188000Y-144058000D02*
X170188000Y-144058000D01*
X176561000Y-143799000D02*
X177261000Y-143799000D01*
X177261000Y-144999000D02*
X176561000Y-144999000D01*
X150907000Y-150657000D02*
X151607000Y-150657000D01*
X151607000Y-151857000D02*
X150907000Y-151857000D01*
X153893000Y-147793000D02*
X153193000Y-147793000D01*
X153193000Y-146593000D02*
X153893000Y-146593000D01*
X153832000Y-150718000D02*
X153832000Y-150018000D01*
X155032000Y-150018000D02*
X155032000Y-150718000D01*
X150968000Y-147732000D02*
X150968000Y-148432000D01*
X149768000Y-148432000D02*
X149768000Y-147732000D01*
X222234000Y-147311000D02*
X220234000Y-147311000D01*
X220234000Y-149361000D02*
X222234000Y-149361000D01*
X243832000Y-152313000D02*
X242832000Y-152313000D01*
X242832000Y-150963000D02*
X243832000Y-150963000D01*
D12*
X79502000Y-84829000D02*
X87242000Y-84829000D01*
X87242000Y-84829000D02*
X87242000Y-82049000D01*
X87242000Y-82049000D02*
X79502000Y-82049000D01*
X79502000Y-82049000D02*
X79502000Y-84829000D01*
X78232000Y-84829000D02*
X76842000Y-84829000D01*
X76842000Y-84829000D02*
X76842000Y-83439000D01*
X167005000Y-151885000D02*
X184905000Y-151885000D01*
X184905000Y-151885000D02*
X184905000Y-149105000D01*
X184905000Y-149105000D02*
X167005000Y-149105000D01*
X167005000Y-149105000D02*
X167005000Y-151885000D01*
X165735000Y-151885000D02*
X164345000Y-151885000D01*
X164345000Y-151885000D02*
X164345000Y-150495000D01*
X204343000Y-152012000D02*
X217163000Y-152012000D01*
X217163000Y-152012000D02*
X217163000Y-149232000D01*
X217163000Y-149232000D02*
X204343000Y-149232000D01*
X204343000Y-149232000D02*
X204343000Y-152012000D01*
X203073000Y-152012000D02*
X201683000Y-152012000D01*
X201683000Y-152012000D02*
X201683000Y-150622000D01*
D10*
X155229000Y-150718000D02*
X155229000Y-150018000D01*
X156429000Y-150018000D02*
X156429000Y-150718000D01*
D13*
X316752877Y-128369544D02*
X316752877Y-127099544D01*
X316898020Y-127885734D02*
X317333449Y-128369544D01*
X317333449Y-127522877D02*
X316752877Y-128006687D01*
X317623734Y-128490496D02*
X318784877Y-128490496D01*
X320018591Y-128369544D02*
X319510591Y-127764782D01*
X319147734Y-128369544D02*
X319147734Y-127099544D01*
X319728306Y-127099544D01*
X319873448Y-127160020D01*
X319946020Y-127220496D01*
X320018591Y-127341449D01*
X320018591Y-127522877D01*
X319946020Y-127643830D01*
X319873448Y-127704306D01*
X319728306Y-127764782D01*
X319147734Y-127764782D01*
X320599163Y-128309068D02*
X320816877Y-128369544D01*
X321179734Y-128369544D01*
X321324877Y-128309068D01*
X321397448Y-128248591D01*
X321470020Y-128127639D01*
X321470020Y-128006687D01*
X321397448Y-127885734D01*
X321324877Y-127825258D01*
X321179734Y-127764782D01*
X320889448Y-127704306D01*
X320744306Y-127643830D01*
X320671734Y-127583353D01*
X320599163Y-127462401D01*
X320599163Y-127341449D01*
X320671734Y-127220496D01*
X320744306Y-127160020D01*
X320889448Y-127099544D01*
X321252306Y-127099544D01*
X321470020Y-127160020D01*
X322123163Y-128369544D02*
X322123163Y-127099544D01*
X322123163Y-127704306D02*
X322994020Y-127704306D01*
X322994020Y-128369544D02*
X322994020Y-127099544D01*
X323719734Y-128369544D02*
X323719734Y-127099544D01*
X324953448Y-127704306D02*
X324445448Y-127704306D01*
X324445448Y-128369544D02*
X324445448Y-127099544D01*
X325171162Y-127099544D01*
X325534020Y-127099544D02*
X326404877Y-127099544D01*
X325969448Y-128369544D02*
X325969448Y-127099544D01*
X75746429Y-123891524D02*
X75746429Y-122621524D01*
X75891572Y-123407714D02*
X76327001Y-123891524D01*
X76327001Y-123044857D02*
X75746429Y-123528667D01*
X76617286Y-124012476D02*
X77778429Y-124012476D01*
X78867000Y-123891524D02*
X78141286Y-123891524D01*
X78141286Y-122621524D01*
X79302429Y-123831048D02*
X79520143Y-123891524D01*
X79883000Y-123891524D01*
X80028143Y-123831048D01*
X80100714Y-123770571D01*
X80173286Y-123649619D01*
X80173286Y-123528667D01*
X80100714Y-123407714D01*
X80028143Y-123347238D01*
X79883000Y-123286762D01*
X79592714Y-123226286D01*
X79447572Y-123165810D01*
X79375000Y-123105333D01*
X79302429Y-122984381D01*
X79302429Y-122863429D01*
X79375000Y-122742476D01*
X79447572Y-122682000D01*
X79592714Y-122621524D01*
X79955572Y-122621524D01*
X80173286Y-122682000D01*
X80826429Y-123891524D02*
X80826429Y-122621524D01*
X80826429Y-123226286D02*
X81697286Y-123226286D01*
X81697286Y-123891524D02*
X81697286Y-122621524D01*
X82423000Y-123891524D02*
X82423000Y-122621524D01*
X83656714Y-123226286D02*
X83148714Y-123226286D01*
X83148714Y-123891524D02*
X83148714Y-122621524D01*
X83874428Y-122621524D01*
X84237286Y-122621524D02*
X85108143Y-122621524D01*
X84672714Y-123891524D02*
X84672714Y-122621524D01*
X85253286Y-124012476D02*
X86414429Y-124012476D01*
X86704715Y-123528667D02*
X87430429Y-123528667D01*
X86559572Y-123891524D02*
X87067572Y-122621524D01*
X87575572Y-123891524D01*
X88083572Y-123891524D02*
X88083572Y-122621524D01*
X88954429Y-123891524D01*
X88954429Y-122621524D01*
X89607572Y-123831048D02*
X89825286Y-123891524D01*
X90188143Y-123891524D01*
X90333286Y-123831048D01*
X90405857Y-123770571D01*
X90478429Y-123649619D01*
X90478429Y-123528667D01*
X90405857Y-123407714D01*
X90333286Y-123347238D01*
X90188143Y-123286762D01*
X89897857Y-123226286D01*
X89752715Y-123165810D01*
X89680143Y-123105333D01*
X89607572Y-122984381D01*
X89607572Y-122863429D01*
X89680143Y-122742476D01*
X89752715Y-122682000D01*
X89897857Y-122621524D01*
X90260715Y-122621524D01*
X90478429Y-122682000D01*
X91131572Y-123891524D02*
X91131572Y-122621524D01*
X318788143Y-120208524D02*
X318788143Y-118938524D01*
X318933286Y-119724714D02*
X319368715Y-120208524D01*
X319368715Y-119361857D02*
X318788143Y-119845667D01*
X319659000Y-120329476D02*
X320820143Y-120329476D01*
X321183000Y-119543286D02*
X321691000Y-119543286D01*
X321908714Y-120208524D02*
X321183000Y-120208524D01*
X321183000Y-118938524D01*
X321908714Y-118938524D01*
X322561857Y-120208524D02*
X322561857Y-118938524D01*
X323432714Y-120208524D01*
X323432714Y-118938524D01*
X323940714Y-118938524D02*
X324811571Y-118938524D01*
X324376142Y-120208524D02*
X324376142Y-118938524D01*
X325319571Y-119543286D02*
X325827571Y-119543286D01*
X326045285Y-120208524D02*
X325319571Y-120208524D01*
X325319571Y-118938524D01*
X326045285Y-118938524D01*
X327569285Y-120208524D02*
X327061285Y-119603762D01*
X326698428Y-120208524D02*
X326698428Y-118938524D01*
X327279000Y-118938524D01*
X327424142Y-118999000D01*
X327496714Y-119059476D01*
X327569285Y-119180429D01*
X327569285Y-119361857D01*
X327496714Y-119482810D01*
X327424142Y-119543286D01*
X327279000Y-119603762D01*
X326698428Y-119603762D01*
X327859571Y-120329476D02*
X329020714Y-120329476D01*
X329311000Y-119845667D02*
X330036714Y-119845667D01*
X329165857Y-120208524D02*
X329673857Y-118938524D01*
X330181857Y-120208524D01*
X330689857Y-120208524D02*
X330689857Y-118938524D01*
X331560714Y-120208524D01*
X331560714Y-118938524D01*
X332213857Y-120148048D02*
X332431571Y-120208524D01*
X332794428Y-120208524D01*
X332939571Y-120148048D01*
X333012142Y-120087571D01*
X333084714Y-119966619D01*
X333084714Y-119845667D01*
X333012142Y-119724714D01*
X332939571Y-119664238D01*
X332794428Y-119603762D01*
X332504142Y-119543286D01*
X332359000Y-119482810D01*
X332286428Y-119422333D01*
X332213857Y-119301381D01*
X332213857Y-119180429D01*
X332286428Y-119059476D01*
X332359000Y-118999000D01*
X332504142Y-118938524D01*
X332867000Y-118938524D01*
X333084714Y-118999000D01*
X333737857Y-120208524D02*
X333737857Y-118938524D01*
X344109524Y-109310714D02*
X342839524Y-109310714D01*
X343625714Y-109165571D02*
X344109524Y-108730142D01*
X343262857Y-108730142D02*
X343746667Y-109310714D01*
X344230476Y-108439857D02*
X344230476Y-107278714D01*
X343444286Y-106915857D02*
X343444286Y-106407857D01*
X344109524Y-106190143D02*
X344109524Y-106915857D01*
X342839524Y-106915857D01*
X342839524Y-106190143D01*
X344109524Y-105537000D02*
X342839524Y-105537000D01*
X344109524Y-104666143D01*
X342839524Y-104666143D01*
X342839524Y-104158143D02*
X342839524Y-103287286D01*
X344109524Y-103722715D02*
X342839524Y-103722715D01*
X343444286Y-102779286D02*
X343444286Y-102271286D01*
X344109524Y-102053572D02*
X344109524Y-102779286D01*
X342839524Y-102779286D01*
X342839524Y-102053572D01*
X344109524Y-100529572D02*
X343504762Y-101037572D01*
X344109524Y-101400429D02*
X342839524Y-101400429D01*
X342839524Y-100819857D01*
X342900000Y-100674715D01*
X342960476Y-100602143D01*
X343081429Y-100529572D01*
X343262857Y-100529572D01*
X343383810Y-100602143D01*
X343444286Y-100674715D01*
X343504762Y-100819857D01*
X343504762Y-101400429D01*
X344230476Y-100239286D02*
X344230476Y-99078143D01*
X344109524Y-98715286D02*
X342839524Y-98715286D01*
X344049048Y-98062143D02*
X344109524Y-97844429D01*
X344109524Y-97481572D01*
X344049048Y-97336429D01*
X343988571Y-97263858D01*
X343867619Y-97191286D01*
X343746667Y-97191286D01*
X343625714Y-97263858D01*
X343565238Y-97336429D01*
X343504762Y-97481572D01*
X343444286Y-97771858D01*
X343383810Y-97917000D01*
X343323333Y-97989572D01*
X343202381Y-98062143D01*
X343081429Y-98062143D01*
X342960476Y-97989572D01*
X342900000Y-97917000D01*
X342839524Y-97771858D01*
X342839524Y-97409000D01*
X342900000Y-97191286D01*
X342839524Y-96247857D02*
X342839524Y-95957571D01*
X342900000Y-95812429D01*
X343020952Y-95667286D01*
X343262857Y-95594714D01*
X343686190Y-95594714D01*
X343928095Y-95667286D01*
X344049048Y-95812429D01*
X344109524Y-95957571D01*
X344109524Y-96247857D01*
X344049048Y-96393000D01*
X343928095Y-96538143D01*
X343686190Y-96610714D01*
X343262857Y-96610714D01*
X343020952Y-96538143D01*
X342900000Y-96393000D01*
X342839524Y-96247857D01*
X323423643Y-71218274D02*
X323423643Y-69948274D01*
X323568786Y-70734464D02*
X324004215Y-71218274D01*
X324004215Y-70371607D02*
X323423643Y-70855417D01*
X324294500Y-71339226D02*
X325455643Y-71339226D01*
X326326500Y-70553036D02*
X326544214Y-70613512D01*
X326616786Y-70673988D01*
X326689357Y-70794940D01*
X326689357Y-70976369D01*
X326616786Y-71097321D01*
X326544214Y-71157798D01*
X326399072Y-71218274D01*
X325818500Y-71218274D01*
X325818500Y-69948274D01*
X326326500Y-69948274D01*
X326471643Y-70008750D01*
X326544214Y-70069226D01*
X326616786Y-70190179D01*
X326616786Y-70311131D01*
X326544214Y-70432083D01*
X326471643Y-70492560D01*
X326326500Y-70553036D01*
X325818500Y-70553036D01*
X327269929Y-71157798D02*
X327487643Y-71218274D01*
X327850500Y-71218274D01*
X327995643Y-71157798D01*
X328068214Y-71097321D01*
X328140786Y-70976369D01*
X328140786Y-70855417D01*
X328068214Y-70734464D01*
X327995643Y-70673988D01*
X327850500Y-70613512D01*
X327560214Y-70553036D01*
X327415072Y-70492560D01*
X327342500Y-70432083D01*
X327269929Y-70311131D01*
X327269929Y-70190179D01*
X327342500Y-70069226D01*
X327415072Y-70008750D01*
X327560214Y-69948274D01*
X327923072Y-69948274D01*
X328140786Y-70008750D01*
X328793929Y-71218274D02*
X328793929Y-69948274D01*
X329374501Y-69948274D01*
X329519643Y-70008750D01*
X329592215Y-70069226D01*
X329664786Y-70190179D01*
X329664786Y-70371607D01*
X329592215Y-70492560D01*
X329519643Y-70553036D01*
X329374501Y-70613512D01*
X328793929Y-70613512D01*
X330245358Y-70855417D02*
X330971072Y-70855417D01*
X330100215Y-71218274D02*
X330608215Y-69948274D01*
X331116215Y-71218274D01*
X332495072Y-71097321D02*
X332422501Y-71157798D01*
X332204787Y-71218274D01*
X332059644Y-71218274D01*
X331841929Y-71157798D01*
X331696787Y-71036845D01*
X331624215Y-70915893D01*
X331551644Y-70673988D01*
X331551644Y-70492560D01*
X331624215Y-70250655D01*
X331696787Y-70129702D01*
X331841929Y-70008750D01*
X332059644Y-69948274D01*
X332204787Y-69948274D01*
X332422501Y-70008750D01*
X332495072Y-70069226D01*
X333148215Y-70553036D02*
X333656215Y-70553036D01*
X333873929Y-71218274D02*
X333148215Y-71218274D01*
X333148215Y-69948274D01*
X333873929Y-69948274D01*
X331438250Y-147418274D02*
X331438250Y-146148274D01*
X331583393Y-146934464D02*
X332018822Y-147418274D01*
X332018822Y-146571607D02*
X331438250Y-147055417D01*
X332309107Y-147539226D02*
X333470250Y-147539226D01*
X334703964Y-147418274D02*
X334195964Y-146813512D01*
X333833107Y-147418274D02*
X333833107Y-146148274D01*
X334413679Y-146148274D01*
X334558821Y-146208750D01*
X334631393Y-146269226D01*
X334703964Y-146390179D01*
X334703964Y-146571607D01*
X334631393Y-146692560D01*
X334558821Y-146753036D01*
X334413679Y-146813512D01*
X333833107Y-146813512D01*
X336227964Y-147297321D02*
X336155393Y-147357798D01*
X335937679Y-147418274D01*
X335792536Y-147418274D01*
X335574821Y-147357798D01*
X335429679Y-147236845D01*
X335357107Y-147115893D01*
X335284536Y-146873988D01*
X335284536Y-146692560D01*
X335357107Y-146450655D01*
X335429679Y-146329702D01*
X335574821Y-146208750D01*
X335792536Y-146148274D01*
X335937679Y-146148274D01*
X336155393Y-146208750D01*
X336227964Y-146269226D01*
X336663393Y-146148274D02*
X337534250Y-146148274D01*
X337098821Y-147418274D02*
X337098821Y-146148274D01*
X338913107Y-147418274D02*
X338405107Y-146813512D01*
X338042250Y-147418274D02*
X338042250Y-146148274D01*
X338622822Y-146148274D01*
X338767964Y-146208750D01*
X338840536Y-146269226D01*
X338913107Y-146390179D01*
X338913107Y-146571607D01*
X338840536Y-146692560D01*
X338767964Y-146753036D01*
X338622822Y-146813512D01*
X338042250Y-146813512D01*
X340291964Y-147418274D02*
X339566250Y-147418274D01*
X339566250Y-146148274D01*
X307190322Y-147418274D02*
X307190322Y-146148274D01*
X307335465Y-146934464D02*
X307770894Y-147418274D01*
X307770894Y-146571607D02*
X307190322Y-147055417D01*
X308061179Y-147539226D02*
X309222322Y-147539226D01*
X310456036Y-147418274D02*
X309948036Y-146813512D01*
X309585179Y-147418274D02*
X309585179Y-146148274D01*
X310165751Y-146148274D01*
X310310893Y-146208750D01*
X310383465Y-146269226D01*
X310456036Y-146390179D01*
X310456036Y-146571607D01*
X310383465Y-146692560D01*
X310310893Y-146753036D01*
X310165751Y-146813512D01*
X309585179Y-146813512D01*
X311109179Y-147418274D02*
X311109179Y-146148274D01*
X311617179Y-147055417D01*
X312125179Y-146148274D01*
X312125179Y-147418274D01*
X312850893Y-146753036D02*
X313358893Y-146753036D01*
X313576607Y-147418274D02*
X312850893Y-147418274D01*
X312850893Y-146148274D01*
X313576607Y-146148274D01*
X314229750Y-147418274D02*
X314229750Y-146148274D01*
X315100607Y-147418274D01*
X315100607Y-146148274D01*
X315826321Y-146148274D02*
X315826321Y-147176369D01*
X315898893Y-147297321D01*
X315971464Y-147357798D01*
X316116607Y-147418274D01*
X316406893Y-147418274D01*
X316552035Y-147357798D01*
X316624607Y-147297321D01*
X316697178Y-147176369D01*
X316697178Y-146148274D01*
X284611536Y-147418274D02*
X284611536Y-146148274D01*
X284756679Y-146934464D02*
X285192108Y-147418274D01*
X285192108Y-146571607D02*
X284611536Y-147055417D01*
X285482393Y-147539226D02*
X286643536Y-147539226D01*
X287877250Y-147418274D02*
X287369250Y-146813512D01*
X287006393Y-147418274D02*
X287006393Y-146148274D01*
X287586965Y-146148274D01*
X287732107Y-146208750D01*
X287804679Y-146269226D01*
X287877250Y-146390179D01*
X287877250Y-146571607D01*
X287804679Y-146692560D01*
X287732107Y-146753036D01*
X287586965Y-146813512D01*
X287006393Y-146813512D01*
X289328679Y-146208750D02*
X289183536Y-146148274D01*
X288965822Y-146148274D01*
X288748107Y-146208750D01*
X288602965Y-146329702D01*
X288530393Y-146450655D01*
X288457822Y-146692560D01*
X288457822Y-146873988D01*
X288530393Y-147115893D01*
X288602965Y-147236845D01*
X288748107Y-147357798D01*
X288965822Y-147418274D01*
X289110965Y-147418274D01*
X289328679Y-147357798D01*
X289401250Y-147297321D01*
X289401250Y-146873988D01*
X289110965Y-146873988D01*
X290054393Y-146148274D02*
X290054393Y-147176369D01*
X290126965Y-147297321D01*
X290199536Y-147357798D01*
X290344679Y-147418274D01*
X290634965Y-147418274D01*
X290780107Y-147357798D01*
X290852679Y-147297321D01*
X290925250Y-147176369D01*
X290925250Y-146148274D01*
X291650964Y-147418274D02*
X291650964Y-146148274D01*
X260871607Y-147418274D02*
X260871607Y-146148274D01*
X261016750Y-146934464D02*
X261452179Y-147418274D01*
X261452179Y-146571607D02*
X260871607Y-147055417D01*
X261742464Y-147539226D02*
X262903607Y-147539226D01*
X264137321Y-147418274D02*
X263629321Y-146813512D01*
X263266464Y-147418274D02*
X263266464Y-146148274D01*
X263847036Y-146148274D01*
X263992178Y-146208750D01*
X264064750Y-146269226D01*
X264137321Y-146390179D01*
X264137321Y-146571607D01*
X264064750Y-146692560D01*
X263992178Y-146753036D01*
X263847036Y-146813512D01*
X263266464Y-146813512D01*
X264717893Y-147055417D02*
X265443607Y-147055417D01*
X264572750Y-147418274D02*
X265080750Y-146148274D01*
X265588750Y-147418274D01*
X266822464Y-147418274D02*
X266096750Y-147418274D01*
X266096750Y-146148274D01*
X267112750Y-146148274D02*
X267983607Y-146148274D01*
X267548178Y-147418274D02*
X267548178Y-146148274D01*
X118141750Y-147418274D02*
X118141750Y-146148274D01*
X118286893Y-146934464D02*
X118722322Y-147418274D01*
X118722322Y-146571607D02*
X118141750Y-147055417D01*
X119012607Y-147539226D02*
X120173750Y-147539226D01*
X121262321Y-147418274D02*
X120536607Y-147418274D01*
X120536607Y-146148274D01*
X121697750Y-147055417D02*
X122423464Y-147055417D01*
X121552607Y-147418274D02*
X122060607Y-146148274D01*
X122568607Y-147418274D01*
X123802321Y-147418274D02*
X123076607Y-147418274D01*
X123076607Y-146148274D01*
X124092607Y-146148274D02*
X124963464Y-146148274D01*
X124528035Y-147418274D02*
X124528035Y-146148274D01*
X94256679Y-147418274D02*
X94256679Y-146148274D01*
X94401822Y-146934464D02*
X94837251Y-147418274D01*
X94837251Y-146571607D02*
X94256679Y-147055417D01*
X95127536Y-147539226D02*
X96288679Y-147539226D01*
X97377250Y-147418274D02*
X96651536Y-147418274D01*
X96651536Y-146148274D01*
X98683536Y-146208750D02*
X98538393Y-146148274D01*
X98320679Y-146148274D01*
X98102964Y-146208750D01*
X97957822Y-146329702D01*
X97885250Y-146450655D01*
X97812679Y-146692560D01*
X97812679Y-146873988D01*
X97885250Y-147115893D01*
X97957822Y-147236845D01*
X98102964Y-147357798D01*
X98320679Y-147418274D01*
X98465822Y-147418274D01*
X98683536Y-147357798D01*
X98756107Y-147297321D01*
X98756107Y-146873988D01*
X98465822Y-146873988D01*
X99409250Y-146148274D02*
X99409250Y-147176369D01*
X99481822Y-147297321D01*
X99554393Y-147357798D01*
X99699536Y-147418274D01*
X99989822Y-147418274D01*
X100134964Y-147357798D01*
X100207536Y-147297321D01*
X100280107Y-147176369D01*
X100280107Y-146148274D01*
X101005821Y-147418274D02*
X101005821Y-146148274D01*
X69645893Y-147418274D02*
X69645893Y-146148274D01*
X69791036Y-146934464D02*
X70226465Y-147418274D01*
X70226465Y-146571607D02*
X69645893Y-147055417D01*
X70516750Y-147539226D02*
X71677893Y-147539226D01*
X72766464Y-147418274D02*
X72040750Y-147418274D01*
X72040750Y-146148274D01*
X74145321Y-147297321D02*
X74072750Y-147357798D01*
X73855036Y-147418274D01*
X73709893Y-147418274D01*
X73492178Y-147357798D01*
X73347036Y-147236845D01*
X73274464Y-147115893D01*
X73201893Y-146873988D01*
X73201893Y-146692560D01*
X73274464Y-146450655D01*
X73347036Y-146329702D01*
X73492178Y-146208750D01*
X73709893Y-146148274D01*
X73855036Y-146148274D01*
X74072750Y-146208750D01*
X74145321Y-146269226D01*
X74580750Y-146148274D02*
X75451607Y-146148274D01*
X75016178Y-147418274D02*
X75016178Y-146148274D01*
X76830464Y-147418274D02*
X76322464Y-146813512D01*
X75959607Y-147418274D02*
X75959607Y-146148274D01*
X76540179Y-146148274D01*
X76685321Y-146208750D01*
X76757893Y-146269226D01*
X76830464Y-146390179D01*
X76830464Y-146571607D01*
X76757893Y-146692560D01*
X76685321Y-146753036D01*
X76540179Y-146813512D01*
X75959607Y-146813512D01*
X78209321Y-147418274D02*
X77483607Y-147418274D01*
X77483607Y-146148274D01*
X281395714Y-128369544D02*
X281395714Y-127099544D01*
X281540857Y-127885734D02*
X281976286Y-128369544D01*
X281976286Y-127522877D02*
X281395714Y-128006687D01*
X282266571Y-128490496D02*
X283427714Y-128490496D01*
X283718000Y-128309068D02*
X283935714Y-128369544D01*
X284298571Y-128369544D01*
X284443714Y-128309068D01*
X284516285Y-128248591D01*
X284588857Y-128127639D01*
X284588857Y-128006687D01*
X284516285Y-127885734D01*
X284443714Y-127825258D01*
X284298571Y-127764782D01*
X284008285Y-127704306D01*
X283863143Y-127643830D01*
X283790571Y-127583353D01*
X283718000Y-127462401D01*
X283718000Y-127341449D01*
X283790571Y-127220496D01*
X283863143Y-127160020D01*
X284008285Y-127099544D01*
X284371143Y-127099544D01*
X284588857Y-127160020D01*
X285967714Y-128369544D02*
X285242000Y-128369544D01*
X285242000Y-127099544D01*
X286403143Y-128006687D02*
X287128857Y-128006687D01*
X286258000Y-128369544D02*
X286766000Y-127099544D01*
X287274000Y-128369544D01*
X287709429Y-128309068D02*
X287927143Y-128369544D01*
X288290000Y-128369544D01*
X288435143Y-128309068D01*
X288507714Y-128248591D01*
X288580286Y-128127639D01*
X288580286Y-128006687D01*
X288507714Y-127885734D01*
X288435143Y-127825258D01*
X288290000Y-127764782D01*
X287999714Y-127704306D01*
X287854572Y-127643830D01*
X287782000Y-127583353D01*
X287709429Y-127462401D01*
X287709429Y-127341449D01*
X287782000Y-127220496D01*
X287854572Y-127160020D01*
X287999714Y-127099544D01*
X288362572Y-127099544D01*
X288580286Y-127160020D01*
X289233429Y-128369544D02*
X289233429Y-127099544D01*
X289233429Y-127704306D02*
X290104286Y-127704306D01*
X290104286Y-128369544D02*
X290104286Y-127099544D01*
X263724572Y-128369544D02*
X263724572Y-127099544D01*
X263869715Y-127885734D02*
X264305144Y-128369544D01*
X264305144Y-127522877D02*
X263724572Y-128006687D01*
X264595429Y-128490496D02*
X265756572Y-128490496D01*
X266119429Y-128369544D02*
X266119429Y-127099544D01*
X266482286Y-127099544D01*
X266700001Y-127160020D01*
X266845143Y-127280972D01*
X266917715Y-127401925D01*
X266990286Y-127643830D01*
X266990286Y-127825258D01*
X266917715Y-128067163D01*
X266845143Y-128188115D01*
X266700001Y-128309068D01*
X266482286Y-128369544D01*
X266119429Y-128369544D01*
X267933715Y-127099544D02*
X268224001Y-127099544D01*
X268369143Y-127160020D01*
X268514286Y-127280972D01*
X268586858Y-127522877D01*
X268586858Y-127946210D01*
X268514286Y-128188115D01*
X268369143Y-128309068D01*
X268224001Y-128369544D01*
X267933715Y-128369544D01*
X267788572Y-128309068D01*
X267643429Y-128188115D01*
X267570858Y-127946210D01*
X267570858Y-127522877D01*
X267643429Y-127280972D01*
X267788572Y-127160020D01*
X267933715Y-127099544D01*
X269022286Y-127099544D02*
X269893143Y-127099544D01*
X269457714Y-128369544D02*
X269457714Y-127099544D01*
X242860286Y-128369544D02*
X242860286Y-127099544D01*
X243005429Y-127885734D02*
X243440858Y-128369544D01*
X243440858Y-127522877D02*
X242860286Y-128006687D01*
X243731143Y-128490496D02*
X244892286Y-128490496D01*
X246126000Y-128248591D02*
X246053429Y-128309068D01*
X245835715Y-128369544D01*
X245690572Y-128369544D01*
X245472857Y-128309068D01*
X245327715Y-128188115D01*
X245255143Y-128067163D01*
X245182572Y-127825258D01*
X245182572Y-127643830D01*
X245255143Y-127401925D01*
X245327715Y-127280972D01*
X245472857Y-127160020D01*
X245690572Y-127099544D01*
X245835715Y-127099544D01*
X246053429Y-127160020D01*
X246126000Y-127220496D01*
X247069429Y-127099544D02*
X247359715Y-127099544D01*
X247504857Y-127160020D01*
X247650000Y-127280972D01*
X247722572Y-127522877D01*
X247722572Y-127946210D01*
X247650000Y-128188115D01*
X247504857Y-128309068D01*
X247359715Y-128369544D01*
X247069429Y-128369544D01*
X246924286Y-128309068D01*
X246779143Y-128188115D01*
X246706572Y-127946210D01*
X246706572Y-127522877D01*
X246779143Y-127280972D01*
X246924286Y-127160020D01*
X247069429Y-127099544D01*
X248375714Y-128369544D02*
X248375714Y-127099544D01*
X248883714Y-128006687D01*
X249391714Y-127099544D01*
X249391714Y-128369544D01*
X250117428Y-128369544D02*
X250117428Y-127099544D01*
X250625428Y-128006687D01*
X251133428Y-127099544D01*
X251133428Y-128369544D01*
X251786571Y-128006687D02*
X252512285Y-128006687D01*
X251641428Y-128369544D02*
X252149428Y-127099544D01*
X252657428Y-128369544D01*
X226894572Y-128369544D02*
X226894572Y-127099544D01*
X227039715Y-127885734D02*
X227475144Y-128369544D01*
X227475144Y-127522877D02*
X226894572Y-128006687D01*
X227765429Y-128490496D02*
X228926572Y-128490496D01*
X229289429Y-128369544D02*
X229289429Y-127099544D01*
X229797429Y-128006687D01*
X230305429Y-127099544D01*
X230305429Y-128369544D01*
X207917143Y-128369544D02*
X207917143Y-127099544D01*
X208062286Y-127885734D02*
X208497715Y-128369544D01*
X208497715Y-127522877D02*
X207917143Y-128006687D01*
X208788000Y-128490496D02*
X209949143Y-128490496D01*
X210312000Y-128369544D02*
X210312000Y-127099544D01*
X211182857Y-128369544D01*
X211182857Y-127099544D01*
X188903429Y-128369544D02*
X188903429Y-127099544D01*
X189048572Y-127885734D02*
X189484001Y-128369544D01*
X189484001Y-127522877D02*
X188903429Y-128006687D01*
X189774286Y-128490496D02*
X190935429Y-128490496D01*
X191806286Y-127704306D02*
X192024000Y-127764782D01*
X192096572Y-127825258D01*
X192169143Y-127946210D01*
X192169143Y-128127639D01*
X192096572Y-128248591D01*
X192024000Y-128309068D01*
X191878858Y-128369544D01*
X191298286Y-128369544D01*
X191298286Y-127099544D01*
X191806286Y-127099544D01*
X191951429Y-127160020D01*
X192024000Y-127220496D01*
X192096572Y-127341449D01*
X192096572Y-127462401D01*
X192024000Y-127583353D01*
X191951429Y-127643830D01*
X191806286Y-127704306D01*
X191298286Y-127704306D01*
X169962286Y-128369544D02*
X169962286Y-127099544D01*
X170107429Y-127885734D02*
X170542858Y-128369544D01*
X170542858Y-127522877D02*
X169962286Y-128006687D01*
X170833143Y-128490496D02*
X171994286Y-128490496D01*
X172139429Y-127099544D02*
X172647429Y-128369544D01*
X173155429Y-127099544D01*
X150803429Y-128369544D02*
X150803429Y-127099544D01*
X150948572Y-127885734D02*
X151384001Y-128369544D01*
X151384001Y-127522877D02*
X150803429Y-128006687D01*
X151674286Y-128490496D02*
X152835429Y-128490496D01*
X154069143Y-128248591D02*
X153996572Y-128309068D01*
X153778858Y-128369544D01*
X153633715Y-128369544D01*
X153416000Y-128309068D01*
X153270858Y-128188115D01*
X153198286Y-128067163D01*
X153125715Y-127825258D01*
X153125715Y-127643830D01*
X153198286Y-127401925D01*
X153270858Y-127280972D01*
X153416000Y-127160020D01*
X153633715Y-127099544D01*
X153778858Y-127099544D01*
X153996572Y-127160020D01*
X154069143Y-127220496D01*
X131789714Y-128369544D02*
X131789714Y-127099544D01*
X131934857Y-127885734D02*
X132370286Y-128369544D01*
X132370286Y-127522877D02*
X131789714Y-128006687D01*
X132660571Y-128490496D02*
X133821714Y-128490496D01*
X134039428Y-127099544D02*
X135055428Y-128369544D01*
X135055428Y-127099544D02*
X134039428Y-128369544D01*
X112739714Y-128369544D02*
X112739714Y-127099544D01*
X112884857Y-127885734D02*
X113320286Y-128369544D01*
X113320286Y-127522877D02*
X112739714Y-128006687D01*
X113610571Y-128490496D02*
X114771714Y-128490496D01*
X114989428Y-127099544D02*
X116005428Y-127099544D01*
X114989428Y-128369544D01*
X116005428Y-128369544D01*
X85489143Y-128369544D02*
X85489143Y-127099544D01*
X85634286Y-127885734D02*
X86069715Y-128369544D01*
X86069715Y-127522877D02*
X85489143Y-128006687D01*
X86360000Y-128490496D02*
X87521143Y-128490496D01*
X87884000Y-128369544D02*
X87884000Y-127099544D01*
X88754857Y-128369544D01*
X88754857Y-127099544D01*
X89480571Y-127099544D02*
X89480571Y-128127639D01*
X89553143Y-128248591D01*
X89625714Y-128309068D01*
X89770857Y-128369544D01*
X90061143Y-128369544D01*
X90206285Y-128309068D01*
X90278857Y-128248591D01*
X90351428Y-128127639D01*
X90351428Y-127099544D01*
X90714285Y-128490496D02*
X91875428Y-128490496D01*
X92746285Y-127704306D02*
X92963999Y-127764782D01*
X93036571Y-127825258D01*
X93109142Y-127946210D01*
X93109142Y-128127639D01*
X93036571Y-128248591D01*
X92963999Y-128309068D01*
X92818857Y-128369544D01*
X92238285Y-128369544D01*
X92238285Y-127099544D01*
X92746285Y-127099544D01*
X92891428Y-127160020D01*
X92963999Y-127220496D01*
X93036571Y-127341449D01*
X93036571Y-127462401D01*
X92963999Y-127583353D01*
X92891428Y-127643830D01*
X92746285Y-127704306D01*
X92238285Y-127704306D01*
X93689714Y-128309068D02*
X93907428Y-128369544D01*
X94270285Y-128369544D01*
X94415428Y-128309068D01*
X94487999Y-128248591D01*
X94560571Y-128127639D01*
X94560571Y-128006687D01*
X94487999Y-127885734D01*
X94415428Y-127825258D01*
X94270285Y-127764782D01*
X93979999Y-127704306D01*
X93834857Y-127643830D01*
X93762285Y-127583353D01*
X93689714Y-127462401D01*
X93689714Y-127341449D01*
X93762285Y-127220496D01*
X93834857Y-127160020D01*
X93979999Y-127099544D01*
X94342857Y-127099544D01*
X94560571Y-127160020D01*
X95939428Y-128369544D02*
X95213714Y-128369544D01*
X95213714Y-127099544D01*
X96374857Y-128006687D02*
X97100571Y-128006687D01*
X96229714Y-128369544D02*
X96737714Y-127099544D01*
X97245714Y-128369544D01*
X97681143Y-128309068D02*
X97898857Y-128369544D01*
X98261714Y-128369544D01*
X98406857Y-128309068D01*
X98479428Y-128248591D01*
X98552000Y-128127639D01*
X98552000Y-128006687D01*
X98479428Y-127885734D01*
X98406857Y-127825258D01*
X98261714Y-127764782D01*
X97971428Y-127704306D01*
X97826286Y-127643830D01*
X97753714Y-127583353D01*
X97681143Y-127462401D01*
X97681143Y-127341449D01*
X97753714Y-127220496D01*
X97826286Y-127160020D01*
X97971428Y-127099544D01*
X98334286Y-127099544D01*
X98552000Y-127160020D01*
X99205143Y-128369544D02*
X99205143Y-127099544D01*
X99205143Y-127704306D02*
X100076000Y-127704306D01*
X100076000Y-128369544D02*
X100076000Y-127099544D01*
X100438857Y-128490496D02*
X101600000Y-128490496D01*
X101962857Y-128369544D02*
X101962857Y-127099544D01*
X102616000Y-128309068D02*
X102833714Y-128369544D01*
X103196571Y-128369544D01*
X103341714Y-128309068D01*
X103414285Y-128248591D01*
X103486857Y-128127639D01*
X103486857Y-128006687D01*
X103414285Y-127885734D01*
X103341714Y-127825258D01*
X103196571Y-127764782D01*
X102906285Y-127704306D01*
X102761143Y-127643830D01*
X102688571Y-127583353D01*
X102616000Y-127462401D01*
X102616000Y-127341449D01*
X102688571Y-127220496D01*
X102761143Y-127160020D01*
X102906285Y-127099544D01*
X103269143Y-127099544D01*
X103486857Y-127160020D01*
X104430286Y-127099544D02*
X104720572Y-127099544D01*
X104865714Y-127160020D01*
X105010857Y-127280972D01*
X105083429Y-127522877D01*
X105083429Y-127946210D01*
X105010857Y-128188115D01*
X104865714Y-128309068D01*
X104720572Y-128369544D01*
X104430286Y-128369544D01*
X104285143Y-128309068D01*
X104140000Y-128188115D01*
X104067429Y-127946210D01*
X104067429Y-127522877D01*
X104140000Y-127280972D01*
X104285143Y-127160020D01*
X104430286Y-127099544D01*
X66780592Y-128369544D02*
X66780592Y-127099544D01*
X66925735Y-127885734D02*
X67361164Y-128369544D01*
X67361164Y-127522877D02*
X66780592Y-128006687D01*
X67651449Y-128490496D02*
X68812592Y-128490496D01*
X69901163Y-128369544D02*
X69175449Y-128369544D01*
X69175449Y-127099544D01*
X70336592Y-128309068D02*
X70554306Y-128369544D01*
X70917163Y-128369544D01*
X71062306Y-128309068D01*
X71134877Y-128248591D01*
X71207449Y-128127639D01*
X71207449Y-128006687D01*
X71134877Y-127885734D01*
X71062306Y-127825258D01*
X70917163Y-127764782D01*
X70626877Y-127704306D01*
X70481735Y-127643830D01*
X70409163Y-127583353D01*
X70336592Y-127462401D01*
X70336592Y-127341449D01*
X70409163Y-127220496D01*
X70481735Y-127160020D01*
X70626877Y-127099544D01*
X70989735Y-127099544D01*
X71207449Y-127160020D01*
X71860592Y-128369544D02*
X71860592Y-127099544D01*
X71860592Y-127704306D02*
X72731449Y-127704306D01*
X72731449Y-128369544D02*
X72731449Y-127099544D01*
X73457163Y-128369544D02*
X73457163Y-127099544D01*
X74690877Y-127704306D02*
X74182877Y-127704306D01*
X74182877Y-128369544D02*
X74182877Y-127099544D01*
X74908591Y-127099544D01*
X75271449Y-127099544D02*
X76142306Y-127099544D01*
X75706877Y-128369544D02*
X75706877Y-127099544D01*
X76287449Y-128490496D02*
X77448592Y-128490496D01*
X77811449Y-128369544D02*
X77811449Y-127099544D01*
X78464592Y-128309068D02*
X78682306Y-128369544D01*
X79045163Y-128369544D01*
X79190306Y-128309068D01*
X79262877Y-128248591D01*
X79335449Y-128127639D01*
X79335449Y-128006687D01*
X79262877Y-127885734D01*
X79190306Y-127825258D01*
X79045163Y-127764782D01*
X78754877Y-127704306D01*
X78609735Y-127643830D01*
X78537163Y-127583353D01*
X78464592Y-127462401D01*
X78464592Y-127341449D01*
X78537163Y-127220496D01*
X78609735Y-127160020D01*
X78754877Y-127099544D01*
X79117735Y-127099544D01*
X79335449Y-127160020D01*
X80278878Y-127099544D02*
X80569164Y-127099544D01*
X80714306Y-127160020D01*
X80859449Y-127280972D01*
X80932021Y-127522877D01*
X80932021Y-127946210D01*
X80859449Y-128188115D01*
X80714306Y-128309068D01*
X80569164Y-128369544D01*
X80278878Y-128369544D01*
X80133735Y-128309068D01*
X79988592Y-128188115D01*
X79916021Y-127946210D01*
X79916021Y-127522877D01*
X79988592Y-127280972D01*
X80133735Y-127160020D01*
X80278878Y-127099544D01*
X306741286Y-109319544D02*
X306741286Y-108049544D01*
X306886429Y-108835734D02*
X307321858Y-109319544D01*
X307321858Y-108472877D02*
X306741286Y-108956687D01*
X307612143Y-109440496D02*
X308773286Y-109440496D01*
X309644143Y-108654306D02*
X309861857Y-108714782D01*
X309934429Y-108775258D01*
X310007000Y-108896210D01*
X310007000Y-109077639D01*
X309934429Y-109198591D01*
X309861857Y-109259068D01*
X309716715Y-109319544D01*
X309136143Y-109319544D01*
X309136143Y-108049544D01*
X309644143Y-108049544D01*
X309789286Y-108110020D01*
X309861857Y-108170496D01*
X309934429Y-108291449D01*
X309934429Y-108412401D01*
X309861857Y-108533353D01*
X309789286Y-108593830D01*
X309644143Y-108654306D01*
X309136143Y-108654306D01*
X310587572Y-109259068D02*
X310805286Y-109319544D01*
X311168143Y-109319544D01*
X311313286Y-109259068D01*
X311385857Y-109198591D01*
X311458429Y-109077639D01*
X311458429Y-108956687D01*
X311385857Y-108835734D01*
X311313286Y-108775258D01*
X311168143Y-108714782D01*
X310877857Y-108654306D01*
X310732715Y-108593830D01*
X310660143Y-108533353D01*
X310587572Y-108412401D01*
X310587572Y-108291449D01*
X310660143Y-108170496D01*
X310732715Y-108110020D01*
X310877857Y-108049544D01*
X311240715Y-108049544D01*
X311458429Y-108110020D01*
X312837286Y-109319544D02*
X312111572Y-109319544D01*
X312111572Y-108049544D01*
X313272715Y-108956687D02*
X313998429Y-108956687D01*
X313127572Y-109319544D02*
X313635572Y-108049544D01*
X314143572Y-109319544D01*
X314579001Y-109259068D02*
X314796715Y-109319544D01*
X315159572Y-109319544D01*
X315304715Y-109259068D01*
X315377286Y-109198591D01*
X315449858Y-109077639D01*
X315449858Y-108956687D01*
X315377286Y-108835734D01*
X315304715Y-108775258D01*
X315159572Y-108714782D01*
X314869286Y-108654306D01*
X314724144Y-108593830D01*
X314651572Y-108533353D01*
X314579001Y-108412401D01*
X314579001Y-108291449D01*
X314651572Y-108170496D01*
X314724144Y-108110020D01*
X314869286Y-108049544D01*
X315232144Y-108049544D01*
X315449858Y-108110020D01*
X316103001Y-109319544D02*
X316103001Y-108049544D01*
X316103001Y-108654306D02*
X316973858Y-108654306D01*
X316973858Y-109319544D02*
X316973858Y-108049544D01*
X317336715Y-109440496D02*
X318497858Y-109440496D01*
X318860715Y-109319544D02*
X318860715Y-108049544D01*
X319513858Y-109259068D02*
X319731572Y-109319544D01*
X320094429Y-109319544D01*
X320239572Y-109259068D01*
X320312143Y-109198591D01*
X320384715Y-109077639D01*
X320384715Y-108956687D01*
X320312143Y-108835734D01*
X320239572Y-108775258D01*
X320094429Y-108714782D01*
X319804143Y-108654306D01*
X319659001Y-108593830D01*
X319586429Y-108533353D01*
X319513858Y-108412401D01*
X319513858Y-108291449D01*
X319586429Y-108170496D01*
X319659001Y-108110020D01*
X319804143Y-108049544D01*
X320167001Y-108049544D01*
X320384715Y-108110020D01*
X321328144Y-108049544D02*
X321618430Y-108049544D01*
X321763572Y-108110020D01*
X321908715Y-108230972D01*
X321981287Y-108472877D01*
X321981287Y-108896210D01*
X321908715Y-109138115D01*
X321763572Y-109259068D01*
X321618430Y-109319544D01*
X321328144Y-109319544D01*
X321183001Y-109259068D01*
X321037858Y-109138115D01*
X320965287Y-108896210D01*
X320965287Y-108472877D01*
X321037858Y-108230972D01*
X321183001Y-108110020D01*
X321328144Y-108049544D01*
X290775572Y-109319544D02*
X290775572Y-108049544D01*
X290920715Y-108835734D02*
X291356144Y-109319544D01*
X291356144Y-108472877D02*
X290775572Y-108956687D01*
X291646429Y-109440496D02*
X292807572Y-109440496D01*
X294186429Y-109440496D02*
X294041286Y-109380020D01*
X293896143Y-109259068D01*
X293678429Y-109077639D01*
X293533286Y-109017163D01*
X293388143Y-109017163D01*
X293460715Y-109319544D02*
X293315572Y-109259068D01*
X293170429Y-109138115D01*
X293097858Y-108896210D01*
X293097858Y-108472877D01*
X293170429Y-108230972D01*
X293315572Y-108110020D01*
X293460715Y-108049544D01*
X293751001Y-108049544D01*
X293896143Y-108110020D01*
X294041286Y-108230972D01*
X294113858Y-108472877D01*
X294113858Y-108896210D01*
X294041286Y-109138115D01*
X293896143Y-109259068D01*
X293751001Y-109319544D01*
X293460715Y-109319544D01*
X294767000Y-108049544D02*
X294767000Y-109077639D01*
X294839572Y-109198591D01*
X294912143Y-109259068D01*
X295057286Y-109319544D01*
X295347572Y-109319544D01*
X295492714Y-109259068D01*
X295565286Y-109198591D01*
X295637857Y-109077639D01*
X295637857Y-108049544D01*
X296653857Y-108049544D02*
X296944143Y-108049544D01*
X297089285Y-108110020D01*
X297234428Y-108230972D01*
X297307000Y-108472877D01*
X297307000Y-108896210D01*
X297234428Y-109138115D01*
X297089285Y-109259068D01*
X296944143Y-109319544D01*
X296653857Y-109319544D01*
X296508714Y-109259068D01*
X296363571Y-109138115D01*
X296291000Y-108896210D01*
X296291000Y-108472877D01*
X296363571Y-108230972D01*
X296508714Y-108110020D01*
X296653857Y-108049544D01*
X297742428Y-108049544D02*
X298613285Y-108049544D01*
X298177856Y-109319544D02*
X298177856Y-108049544D01*
X299121285Y-108654306D02*
X299629285Y-108654306D01*
X299846999Y-109319544D02*
X299121285Y-109319544D01*
X299121285Y-108049544D01*
X299846999Y-108049544D01*
X268967858Y-109319544D02*
X268967858Y-108049544D01*
X269113001Y-108835734D02*
X269548430Y-109319544D01*
X269548430Y-108472877D02*
X268967858Y-108956687D01*
X269838715Y-109440496D02*
X270999858Y-109440496D01*
X271290144Y-109259068D02*
X271507858Y-109319544D01*
X271870715Y-109319544D01*
X272015858Y-109259068D01*
X272088429Y-109198591D01*
X272161001Y-109077639D01*
X272161001Y-108956687D01*
X272088429Y-108835734D01*
X272015858Y-108775258D01*
X271870715Y-108714782D01*
X271580429Y-108654306D01*
X271435287Y-108593830D01*
X271362715Y-108533353D01*
X271290144Y-108412401D01*
X271290144Y-108291449D01*
X271362715Y-108170496D01*
X271435287Y-108110020D01*
X271580429Y-108049544D01*
X271943287Y-108049544D01*
X272161001Y-108110020D01*
X272814144Y-108654306D02*
X273322144Y-108654306D01*
X273539858Y-109319544D02*
X272814144Y-109319544D01*
X272814144Y-108049544D01*
X273539858Y-108049544D01*
X274193001Y-109319544D02*
X274193001Y-108049544D01*
X274701001Y-108956687D01*
X275209001Y-108049544D01*
X275209001Y-109319544D01*
X275934715Y-109319544D02*
X275934715Y-108049544D01*
X277531286Y-109198591D02*
X277458715Y-109259068D01*
X277241001Y-109319544D01*
X277095858Y-109319544D01*
X276878143Y-109259068D01*
X276733001Y-109138115D01*
X276660429Y-109017163D01*
X276587858Y-108775258D01*
X276587858Y-108593830D01*
X276660429Y-108351925D01*
X276733001Y-108230972D01*
X276878143Y-108110020D01*
X277095858Y-108049544D01*
X277241001Y-108049544D01*
X277458715Y-108110020D01*
X277531286Y-108170496D01*
X278474715Y-108049544D02*
X278765001Y-108049544D01*
X278910143Y-108110020D01*
X279055286Y-108230972D01*
X279127858Y-108472877D01*
X279127858Y-108896210D01*
X279055286Y-109138115D01*
X278910143Y-109259068D01*
X278765001Y-109319544D01*
X278474715Y-109319544D01*
X278329572Y-109259068D01*
X278184429Y-109138115D01*
X278111858Y-108896210D01*
X278111858Y-108472877D01*
X278184429Y-108230972D01*
X278329572Y-108110020D01*
X278474715Y-108049544D01*
X280506714Y-109319544D02*
X279781000Y-109319544D01*
X279781000Y-108049544D01*
X281305000Y-108049544D02*
X281595286Y-108049544D01*
X281740428Y-108110020D01*
X281885571Y-108230972D01*
X281958143Y-108472877D01*
X281958143Y-108896210D01*
X281885571Y-109138115D01*
X281740428Y-109259068D01*
X281595286Y-109319544D01*
X281305000Y-109319544D01*
X281159857Y-109259068D01*
X281014714Y-109138115D01*
X280942143Y-108896210D01*
X280942143Y-108472877D01*
X281014714Y-108230972D01*
X281159857Y-108110020D01*
X281305000Y-108049544D01*
X282611285Y-109319544D02*
X282611285Y-108049544D01*
X283482142Y-109319544D01*
X283482142Y-108049544D01*
X255723572Y-109319544D02*
X255723572Y-108049544D01*
X255868715Y-108835734D02*
X256304144Y-109319544D01*
X256304144Y-108472877D02*
X255723572Y-108956687D01*
X256594429Y-109440496D02*
X257755572Y-109440496D01*
X258844143Y-109319544D02*
X258118429Y-109319544D01*
X258118429Y-108049544D01*
X236528429Y-109319544D02*
X236528429Y-108049544D01*
X236673572Y-108835734D02*
X237109001Y-109319544D01*
X237109001Y-108472877D02*
X236528429Y-108956687D01*
X237399286Y-109440496D02*
X238560429Y-109440496D01*
X238923286Y-109319544D02*
X238923286Y-108049544D01*
X239794143Y-109319544D02*
X239141000Y-108593830D01*
X239794143Y-108049544D02*
X238923286Y-108775258D01*
X217659857Y-109319544D02*
X217659857Y-108049544D01*
X217805000Y-108835734D02*
X218240429Y-109319544D01*
X218240429Y-108472877D02*
X217659857Y-108956687D01*
X218530714Y-109440496D02*
X219691857Y-109440496D01*
X220490143Y-108049544D02*
X220490143Y-108956687D01*
X220417571Y-109138115D01*
X220272428Y-109259068D01*
X220054714Y-109319544D01*
X219909571Y-109319544D01*
X198392143Y-109319544D02*
X198392143Y-108049544D01*
X198537286Y-108835734D02*
X198972715Y-109319544D01*
X198972715Y-108472877D02*
X198392143Y-108956687D01*
X199263000Y-109440496D02*
X200424143Y-109440496D01*
X200787000Y-109319544D02*
X200787000Y-108049544D01*
X200787000Y-108654306D02*
X201657857Y-108654306D01*
X201657857Y-109319544D02*
X201657857Y-108049544D01*
X179378429Y-109319544D02*
X179378429Y-108049544D01*
X179523572Y-108835734D02*
X179959001Y-109319544D01*
X179959001Y-108472877D02*
X179378429Y-108956687D01*
X180249286Y-109440496D02*
X181410429Y-109440496D01*
X182571572Y-108110020D02*
X182426429Y-108049544D01*
X182208715Y-108049544D01*
X181991000Y-108110020D01*
X181845858Y-108230972D01*
X181773286Y-108351925D01*
X181700715Y-108593830D01*
X181700715Y-108775258D01*
X181773286Y-109017163D01*
X181845858Y-109138115D01*
X181991000Y-109259068D01*
X182208715Y-109319544D01*
X182353858Y-109319544D01*
X182571572Y-109259068D01*
X182644143Y-109198591D01*
X182644143Y-108775258D01*
X182353858Y-108775258D01*
X160437286Y-109319544D02*
X160437286Y-108049544D01*
X160582429Y-108835734D02*
X161017858Y-109319544D01*
X161017858Y-108472877D02*
X160437286Y-108956687D01*
X161308143Y-109440496D02*
X162469286Y-109440496D01*
X163340143Y-108654306D02*
X162832143Y-108654306D01*
X162832143Y-109319544D02*
X162832143Y-108049544D01*
X163557857Y-108049544D01*
X141278429Y-109319544D02*
X141278429Y-108049544D01*
X141423572Y-108835734D02*
X141859001Y-109319544D01*
X141859001Y-108472877D02*
X141278429Y-108956687D01*
X142149286Y-109440496D02*
X143310429Y-109440496D01*
X143673286Y-109319544D02*
X143673286Y-108049544D01*
X144036143Y-108049544D01*
X144253858Y-108110020D01*
X144399000Y-108230972D01*
X144471572Y-108351925D01*
X144544143Y-108593830D01*
X144544143Y-108775258D01*
X144471572Y-109017163D01*
X144399000Y-109138115D01*
X144253858Y-109259068D01*
X144036143Y-109319544D01*
X143673286Y-109319544D01*
X122264714Y-109319544D02*
X122264714Y-108049544D01*
X122409857Y-108835734D02*
X122845286Y-109319544D01*
X122845286Y-108472877D02*
X122264714Y-108956687D01*
X123135571Y-109440496D02*
X124296714Y-109440496D01*
X124587000Y-109259068D02*
X124804714Y-109319544D01*
X125167571Y-109319544D01*
X125312714Y-109259068D01*
X125385285Y-109198591D01*
X125457857Y-109077639D01*
X125457857Y-108956687D01*
X125385285Y-108835734D01*
X125312714Y-108775258D01*
X125167571Y-108714782D01*
X124877285Y-108654306D01*
X124732143Y-108593830D01*
X124659571Y-108533353D01*
X124587000Y-108412401D01*
X124587000Y-108291449D01*
X124659571Y-108170496D01*
X124732143Y-108110020D01*
X124877285Y-108049544D01*
X125240143Y-108049544D01*
X125457857Y-108110020D01*
X103287286Y-109319544D02*
X103287286Y-108049544D01*
X103432429Y-108835734D02*
X103867858Y-109319544D01*
X103867858Y-108472877D02*
X103287286Y-108956687D01*
X104158143Y-109440496D02*
X105319286Y-109440496D01*
X105609572Y-108956687D02*
X106335286Y-108956687D01*
X105464429Y-109319544D02*
X105972429Y-108049544D01*
X106480429Y-109319544D01*
X71905949Y-109319544D02*
X71905949Y-108049544D01*
X72051092Y-108835734D02*
X72486521Y-109319544D01*
X72486521Y-108472877D02*
X71905949Y-108956687D01*
X72776806Y-109440496D02*
X73937949Y-109440496D01*
X75171663Y-109198591D02*
X75099092Y-109259068D01*
X74881378Y-109319544D01*
X74736235Y-109319544D01*
X74518520Y-109259068D01*
X74373378Y-109138115D01*
X74300806Y-109017163D01*
X74228235Y-108775258D01*
X74228235Y-108593830D01*
X74300806Y-108351925D01*
X74373378Y-108230972D01*
X74518520Y-108110020D01*
X74736235Y-108049544D01*
X74881378Y-108049544D01*
X75099092Y-108110020D01*
X75171663Y-108170496D01*
X75752235Y-108956687D02*
X76477949Y-108956687D01*
X75607092Y-109319544D02*
X76115092Y-108049544D01*
X76623092Y-109319544D01*
X77131092Y-109319544D02*
X77131092Y-108049544D01*
X77711664Y-108049544D01*
X77856806Y-108110020D01*
X77929378Y-108170496D01*
X78001949Y-108291449D01*
X78001949Y-108472877D01*
X77929378Y-108593830D01*
X77856806Y-108654306D01*
X77711664Y-108714782D01*
X77131092Y-108714782D01*
X78582521Y-109259068D02*
X78800235Y-109319544D01*
X79163092Y-109319544D01*
X79308235Y-109259068D01*
X79380806Y-109198591D01*
X79453378Y-109077639D01*
X79453378Y-108956687D01*
X79380806Y-108835734D01*
X79308235Y-108775258D01*
X79163092Y-108714782D01*
X78872806Y-108654306D01*
X78727664Y-108593830D01*
X78655092Y-108533353D01*
X78582521Y-108412401D01*
X78582521Y-108291449D01*
X78655092Y-108170496D01*
X78727664Y-108110020D01*
X78872806Y-108049544D01*
X79235664Y-108049544D01*
X79453378Y-108110020D01*
X80832235Y-109319544D02*
X80106521Y-109319544D01*
X80106521Y-108049544D01*
X81630521Y-108049544D02*
X81920807Y-108049544D01*
X82065949Y-108110020D01*
X82211092Y-108230972D01*
X82283664Y-108472877D01*
X82283664Y-108896210D01*
X82211092Y-109138115D01*
X82065949Y-109259068D01*
X81920807Y-109319544D01*
X81630521Y-109319544D01*
X81485378Y-109259068D01*
X81340235Y-109138115D01*
X81267664Y-108896210D01*
X81267664Y-108472877D01*
X81340235Y-108230972D01*
X81485378Y-108110020D01*
X81630521Y-108049544D01*
X83807663Y-109198591D02*
X83735092Y-109259068D01*
X83517378Y-109319544D01*
X83372235Y-109319544D01*
X83154520Y-109259068D01*
X83009378Y-109138115D01*
X82936806Y-109017163D01*
X82864235Y-108775258D01*
X82864235Y-108593830D01*
X82936806Y-108351925D01*
X83009378Y-108230972D01*
X83154520Y-108110020D01*
X83372235Y-108049544D01*
X83517378Y-108049544D01*
X83735092Y-108110020D01*
X83807663Y-108170496D01*
X84460806Y-109319544D02*
X84460806Y-108049544D01*
X85331663Y-109319544D02*
X84678520Y-108593830D01*
X85331663Y-108049544D02*
X84460806Y-108775258D01*
X325138143Y-85918524D02*
X325138143Y-84648524D01*
X325283286Y-85434714D02*
X325718715Y-85918524D01*
X325718715Y-85071857D02*
X325138143Y-85555667D01*
X326009000Y-86039476D02*
X327170143Y-86039476D01*
X328041000Y-85253286D02*
X328258714Y-85313762D01*
X328331286Y-85374238D01*
X328403857Y-85495190D01*
X328403857Y-85676619D01*
X328331286Y-85797571D01*
X328258714Y-85858048D01*
X328113572Y-85918524D01*
X327533000Y-85918524D01*
X327533000Y-84648524D01*
X328041000Y-84648524D01*
X328186143Y-84709000D01*
X328258714Y-84769476D01*
X328331286Y-84890429D01*
X328331286Y-85011381D01*
X328258714Y-85132333D01*
X328186143Y-85192810D01*
X328041000Y-85253286D01*
X327533000Y-85253286D01*
X328984429Y-85858048D02*
X329202143Y-85918524D01*
X329565000Y-85918524D01*
X329710143Y-85858048D01*
X329782714Y-85797571D01*
X329855286Y-85676619D01*
X329855286Y-85555667D01*
X329782714Y-85434714D01*
X329710143Y-85374238D01*
X329565000Y-85313762D01*
X329274714Y-85253286D01*
X329129572Y-85192810D01*
X329057000Y-85132333D01*
X328984429Y-85011381D01*
X328984429Y-84890429D01*
X329057000Y-84769476D01*
X329129572Y-84709000D01*
X329274714Y-84648524D01*
X329637572Y-84648524D01*
X329855286Y-84709000D01*
X331234143Y-85918524D02*
X330508429Y-85918524D01*
X330508429Y-84648524D01*
X331669572Y-85555667D02*
X332395286Y-85555667D01*
X331524429Y-85918524D02*
X332032429Y-84648524D01*
X332540429Y-85918524D01*
X332975858Y-85858048D02*
X333193572Y-85918524D01*
X333556429Y-85918524D01*
X333701572Y-85858048D01*
X333774143Y-85797571D01*
X333846715Y-85676619D01*
X333846715Y-85555667D01*
X333774143Y-85434714D01*
X333701572Y-85374238D01*
X333556429Y-85313762D01*
X333266143Y-85253286D01*
X333121001Y-85192810D01*
X333048429Y-85132333D01*
X332975858Y-85011381D01*
X332975858Y-84890429D01*
X333048429Y-84769476D01*
X333121001Y-84709000D01*
X333266143Y-84648524D01*
X333629001Y-84648524D01*
X333846715Y-84709000D01*
X334499858Y-85918524D02*
X334499858Y-84648524D01*
X334499858Y-85253286D02*
X335370715Y-85253286D01*
X335370715Y-85918524D02*
X335370715Y-84648524D01*
X335733572Y-86039476D02*
X336894715Y-86039476D01*
X337185001Y-85555667D02*
X337910715Y-85555667D01*
X337039858Y-85918524D02*
X337547858Y-84648524D01*
X338055858Y-85918524D01*
X338563858Y-85918524D02*
X338563858Y-84648524D01*
X339434715Y-85918524D01*
X339434715Y-84648524D01*
X340087858Y-85858048D02*
X340305572Y-85918524D01*
X340668429Y-85918524D01*
X340813572Y-85858048D01*
X340886143Y-85797571D01*
X340958715Y-85676619D01*
X340958715Y-85555667D01*
X340886143Y-85434714D01*
X340813572Y-85374238D01*
X340668429Y-85313762D01*
X340378143Y-85253286D01*
X340233001Y-85192810D01*
X340160429Y-85132333D01*
X340087858Y-85011381D01*
X340087858Y-84890429D01*
X340160429Y-84769476D01*
X340233001Y-84709000D01*
X340378143Y-84648524D01*
X340741001Y-84648524D01*
X340958715Y-84709000D01*
X341611858Y-85918524D02*
X341611858Y-84648524D01*
X302414214Y-90269544D02*
X302414214Y-88999544D01*
X302559357Y-89785734D02*
X302994786Y-90269544D01*
X302994786Y-89422877D02*
X302414214Y-89906687D01*
X303285071Y-90390496D02*
X304446214Y-90390496D01*
X304446214Y-90390496D02*
X305607357Y-90390496D01*
X306841071Y-90269544D02*
X306333071Y-89664782D01*
X305970214Y-90269544D02*
X305970214Y-88999544D01*
X306550786Y-88999544D01*
X306695928Y-89060020D01*
X306768500Y-89120496D01*
X306841071Y-89241449D01*
X306841071Y-89422877D01*
X306768500Y-89543830D01*
X306695928Y-89604306D01*
X306550786Y-89664782D01*
X305970214Y-89664782D01*
X308002214Y-89604306D02*
X308219928Y-89664782D01*
X308292500Y-89725258D01*
X308365071Y-89846210D01*
X308365071Y-90027639D01*
X308292500Y-90148591D01*
X308219928Y-90209068D01*
X308074786Y-90269544D01*
X307494214Y-90269544D01*
X307494214Y-88999544D01*
X308002214Y-88999544D01*
X308147357Y-89060020D01*
X308219928Y-89120496D01*
X308292500Y-89241449D01*
X308292500Y-89362401D01*
X308219928Y-89483353D01*
X308147357Y-89543830D01*
X308002214Y-89604306D01*
X307494214Y-89604306D01*
X309889071Y-90269544D02*
X309381071Y-89664782D01*
X309018214Y-90269544D02*
X309018214Y-88999544D01*
X309598786Y-88999544D01*
X309743928Y-89060020D01*
X309816500Y-89120496D01*
X309889071Y-89241449D01*
X309889071Y-89422877D01*
X309816500Y-89543830D01*
X309743928Y-89604306D01*
X309598786Y-89664782D01*
X309018214Y-89664782D01*
X310469643Y-89906687D02*
X311195357Y-89906687D01*
X310324500Y-90269544D02*
X310832500Y-88999544D01*
X311340500Y-90269544D01*
X312719357Y-90148591D02*
X312646786Y-90209068D01*
X312429072Y-90269544D01*
X312283929Y-90269544D01*
X312066214Y-90209068D01*
X311921072Y-90088115D01*
X311848500Y-89967163D01*
X311775929Y-89725258D01*
X311775929Y-89543830D01*
X311848500Y-89301925D01*
X311921072Y-89180972D01*
X312066214Y-89060020D01*
X312283929Y-88999544D01*
X312429072Y-88999544D01*
X312646786Y-89060020D01*
X312719357Y-89120496D01*
X313372500Y-90269544D02*
X313372500Y-88999544D01*
X314243357Y-90269544D02*
X313590214Y-89543830D01*
X314243357Y-88999544D02*
X313372500Y-89725258D01*
X314896500Y-89604306D02*
X315404500Y-89604306D01*
X315622214Y-90269544D02*
X314896500Y-90269544D01*
X314896500Y-88999544D01*
X315622214Y-88999544D01*
X316057643Y-88999544D02*
X316928500Y-88999544D01*
X316493071Y-90269544D02*
X316493071Y-88999544D01*
X284089929Y-90269544D02*
X284089929Y-88999544D01*
X284235072Y-89785734D02*
X284670501Y-90269544D01*
X284670501Y-89422877D02*
X284089929Y-89906687D01*
X284960786Y-90390496D02*
X286121929Y-90390496D01*
X287210500Y-90269544D02*
X286484786Y-90269544D01*
X286484786Y-88999544D01*
X288226500Y-89604306D02*
X288444214Y-89664782D01*
X288516786Y-89725258D01*
X288589357Y-89846210D01*
X288589357Y-90027639D01*
X288516786Y-90148591D01*
X288444214Y-90209068D01*
X288299072Y-90269544D01*
X287718500Y-90269544D01*
X287718500Y-88999544D01*
X288226500Y-88999544D01*
X288371643Y-89060020D01*
X288444214Y-89120496D01*
X288516786Y-89241449D01*
X288516786Y-89362401D01*
X288444214Y-89483353D01*
X288371643Y-89543830D01*
X288226500Y-89604306D01*
X287718500Y-89604306D01*
X290113357Y-90269544D02*
X289605357Y-89664782D01*
X289242500Y-90269544D02*
X289242500Y-88999544D01*
X289823072Y-88999544D01*
X289968214Y-89060020D01*
X290040786Y-89120496D01*
X290113357Y-89241449D01*
X290113357Y-89422877D01*
X290040786Y-89543830D01*
X289968214Y-89604306D01*
X289823072Y-89664782D01*
X289242500Y-89664782D01*
X290693929Y-89906687D02*
X291419643Y-89906687D01*
X290548786Y-90269544D02*
X291056786Y-88999544D01*
X291564786Y-90269544D01*
X292943643Y-90148591D02*
X292871072Y-90209068D01*
X292653358Y-90269544D01*
X292508215Y-90269544D01*
X292290500Y-90209068D01*
X292145358Y-90088115D01*
X292072786Y-89967163D01*
X292000215Y-89725258D01*
X292000215Y-89543830D01*
X292072786Y-89301925D01*
X292145358Y-89180972D01*
X292290500Y-89060020D01*
X292508215Y-88999544D01*
X292653358Y-88999544D01*
X292871072Y-89060020D01*
X292943643Y-89120496D01*
X293596786Y-90269544D02*
X293596786Y-88999544D01*
X294467643Y-90269544D02*
X293814500Y-89543830D01*
X294467643Y-88999544D02*
X293596786Y-89725258D01*
X295120786Y-89604306D02*
X295628786Y-89604306D01*
X295846500Y-90269544D02*
X295120786Y-90269544D01*
X295120786Y-88999544D01*
X295846500Y-88999544D01*
X296281929Y-88999544D02*
X297152786Y-88999544D01*
X296717357Y-90269544D02*
X296717357Y-88999544D01*
X269865929Y-90269544D02*
X269865929Y-88999544D01*
X270011072Y-89785734D02*
X270446501Y-90269544D01*
X270446501Y-89422877D02*
X269865929Y-89906687D01*
X270736786Y-90390496D02*
X271897929Y-90390496D01*
X272260786Y-90269544D02*
X272260786Y-88999544D01*
X272841358Y-88999544D01*
X272986500Y-89060020D01*
X273059072Y-89120496D01*
X273131643Y-89241449D01*
X273131643Y-89422877D01*
X273059072Y-89543830D01*
X272986500Y-89604306D01*
X272841358Y-89664782D01*
X272260786Y-89664782D01*
X250779643Y-90269544D02*
X250779643Y-88999544D01*
X250924786Y-89785734D02*
X251360215Y-90269544D01*
X251360215Y-89422877D02*
X250779643Y-89906687D01*
X251650500Y-90390496D02*
X252811643Y-90390496D01*
X253464786Y-88999544D02*
X253755072Y-88999544D01*
X253900214Y-89060020D01*
X254045357Y-89180972D01*
X254117929Y-89422877D01*
X254117929Y-89846210D01*
X254045357Y-90088115D01*
X253900214Y-90209068D01*
X253755072Y-90269544D01*
X253464786Y-90269544D01*
X253319643Y-90209068D01*
X253174500Y-90088115D01*
X253101929Y-89846210D01*
X253101929Y-89422877D01*
X253174500Y-89180972D01*
X253319643Y-89060020D01*
X253464786Y-88999544D01*
X232165072Y-90269544D02*
X232165072Y-88999544D01*
X232310215Y-89785734D02*
X232745644Y-90269544D01*
X232745644Y-89422877D02*
X232165072Y-89906687D01*
X233035929Y-90390496D02*
X234197072Y-90390496D01*
X234559929Y-90269544D02*
X234559929Y-88999544D01*
X212679643Y-90269544D02*
X212679643Y-88999544D01*
X212824786Y-89785734D02*
X213260215Y-90269544D01*
X213260215Y-89422877D02*
X212679643Y-89906687D01*
X213550500Y-90390496D02*
X214711643Y-90390496D01*
X215074500Y-88999544D02*
X215074500Y-90027639D01*
X215147072Y-90148591D01*
X215219643Y-90209068D01*
X215364786Y-90269544D01*
X215655072Y-90269544D01*
X215800214Y-90209068D01*
X215872786Y-90148591D01*
X215945357Y-90027639D01*
X215945357Y-88999544D01*
X193774786Y-90269544D02*
X193774786Y-88999544D01*
X193919929Y-89785734D02*
X194355358Y-90269544D01*
X194355358Y-89422877D02*
X193774786Y-89906687D01*
X194645643Y-90390496D02*
X195806786Y-90390496D01*
X196459929Y-89664782D02*
X196459929Y-90269544D01*
X195951929Y-88999544D02*
X196459929Y-89664782D01*
X196967929Y-88999544D01*
X174797357Y-90269544D02*
X174797357Y-88999544D01*
X174942500Y-89785734D02*
X175377929Y-90269544D01*
X175377929Y-89422877D02*
X174797357Y-89906687D01*
X175668214Y-90390496D02*
X176829357Y-90390496D01*
X176974500Y-88999544D02*
X177845357Y-88999544D01*
X177409928Y-90269544D02*
X177409928Y-88999544D01*
X155565929Y-90269544D02*
X155565929Y-88999544D01*
X155711072Y-89785734D02*
X156146501Y-90269544D01*
X156146501Y-89422877D02*
X155565929Y-89906687D01*
X156436786Y-90390496D02*
X157597929Y-90390496D01*
X158831643Y-90269544D02*
X158323643Y-89664782D01*
X157960786Y-90269544D02*
X157960786Y-88999544D01*
X158541358Y-88999544D01*
X158686500Y-89060020D01*
X158759072Y-89120496D01*
X158831643Y-89241449D01*
X158831643Y-89422877D01*
X158759072Y-89543830D01*
X158686500Y-89604306D01*
X158541358Y-89664782D01*
X157960786Y-89664782D01*
X136588500Y-90269544D02*
X136588500Y-88999544D01*
X136733643Y-89785734D02*
X137169072Y-90269544D01*
X137169072Y-89422877D02*
X136588500Y-89906687D01*
X137459357Y-90390496D02*
X138620500Y-90390496D01*
X138983357Y-89604306D02*
X139491357Y-89604306D01*
X139709071Y-90269544D02*
X138983357Y-90269544D01*
X138983357Y-88999544D01*
X139709071Y-88999544D01*
X117357072Y-90269544D02*
X117357072Y-88999544D01*
X117502215Y-89785734D02*
X117937644Y-90269544D01*
X117937644Y-89422877D02*
X117357072Y-89906687D01*
X118227929Y-90390496D02*
X119389072Y-90390496D01*
X119606786Y-88999544D02*
X119969643Y-90269544D01*
X120259929Y-89362401D01*
X120550215Y-90269544D01*
X120913072Y-88999544D01*
X98379643Y-90269544D02*
X98379643Y-88999544D01*
X98524786Y-89785734D02*
X98960215Y-90269544D01*
X98960215Y-89422877D02*
X98379643Y-89906687D01*
X99250500Y-90390496D02*
X100411643Y-90390496D01*
X101790500Y-90390496D02*
X101645357Y-90330020D01*
X101500214Y-90209068D01*
X101282500Y-90027639D01*
X101137357Y-89967163D01*
X100992214Y-89967163D01*
X101064786Y-90269544D02*
X100919643Y-90209068D01*
X100774500Y-90088115D01*
X100701929Y-89846210D01*
X100701929Y-89422877D01*
X100774500Y-89180972D01*
X100919643Y-89060020D01*
X101064786Y-88999544D01*
X101355072Y-88999544D01*
X101500214Y-89060020D01*
X101645357Y-89180972D01*
X101717929Y-89422877D01*
X101717929Y-89846210D01*
X101645357Y-90088115D01*
X101500214Y-90209068D01*
X101355072Y-90269544D01*
X101064786Y-90269544D01*
X73369714Y-90269544D02*
X73369714Y-88999544D01*
X73514857Y-89785734D02*
X73950286Y-90269544D01*
X73950286Y-89422877D02*
X73369714Y-89906687D01*
X74240571Y-90390496D02*
X75401714Y-90390496D01*
X75546857Y-88999544D02*
X76417714Y-88999544D01*
X75982285Y-90269544D02*
X75982285Y-88999544D01*
X76853143Y-89906687D02*
X77578857Y-89906687D01*
X76708000Y-90269544D02*
X77216000Y-88999544D01*
X77724000Y-90269544D01*
X78740000Y-89604306D02*
X78957714Y-89664782D01*
X79030286Y-89725258D01*
X79102857Y-89846210D01*
X79102857Y-90027639D01*
X79030286Y-90148591D01*
X78957714Y-90209068D01*
X78812572Y-90269544D01*
X78232000Y-90269544D01*
X78232000Y-88999544D01*
X78740000Y-88999544D01*
X78885143Y-89060020D01*
X78957714Y-89120496D01*
X79030286Y-89241449D01*
X79030286Y-89362401D01*
X78957714Y-89483353D01*
X78885143Y-89543830D01*
X78740000Y-89604306D01*
X78232000Y-89604306D01*
X295646929Y-71218274D02*
X295646929Y-69948274D01*
X295792072Y-70734464D02*
X296227501Y-71218274D01*
X296227501Y-70371607D02*
X295646929Y-70855417D01*
X296517786Y-71339226D02*
X297678929Y-71339226D01*
X298041786Y-70553036D02*
X298549786Y-70553036D01*
X298767500Y-71218274D02*
X298041786Y-71218274D01*
X298041786Y-69948274D01*
X298767500Y-69948274D01*
X300436643Y-71339226D02*
X300291500Y-71278750D01*
X300146357Y-71157798D01*
X299928643Y-70976369D01*
X299783500Y-70915893D01*
X299638357Y-70915893D01*
X299710929Y-71218274D02*
X299565786Y-71157798D01*
X299420643Y-71036845D01*
X299348072Y-70794940D01*
X299348072Y-70371607D01*
X299420643Y-70129702D01*
X299565786Y-70008750D01*
X299710929Y-69948274D01*
X300001215Y-69948274D01*
X300146357Y-70008750D01*
X300291500Y-70129702D01*
X300364072Y-70371607D01*
X300364072Y-70794940D01*
X300291500Y-71036845D01*
X300146357Y-71157798D01*
X300001215Y-71218274D01*
X299710929Y-71218274D01*
X301017214Y-69948274D02*
X301017214Y-70976369D01*
X301089786Y-71097321D01*
X301162357Y-71157798D01*
X301307500Y-71218274D01*
X301597786Y-71218274D01*
X301742928Y-71157798D01*
X301815500Y-71097321D01*
X301888071Y-70976369D01*
X301888071Y-69948274D01*
X302541214Y-70855417D02*
X303266928Y-70855417D01*
X302396071Y-71218274D02*
X302904071Y-69948274D01*
X303412071Y-71218274D01*
X304645785Y-71218274D02*
X303920071Y-71218274D01*
X303920071Y-69948274D01*
X276596929Y-71218274D02*
X276596929Y-69948274D01*
X276742072Y-70734464D02*
X277177501Y-71218274D01*
X277177501Y-70371607D02*
X276596929Y-70855417D01*
X277467786Y-71339226D02*
X278628929Y-71339226D01*
X278991786Y-71218274D02*
X278991786Y-69948274D01*
X279499786Y-70855417D01*
X280007786Y-69948274D01*
X280007786Y-71218274D01*
X280733500Y-71218274D02*
X280733500Y-69948274D01*
X281459214Y-71218274D02*
X281459214Y-69948274D01*
X282330071Y-71218274D01*
X282330071Y-69948274D01*
X283055785Y-69948274D02*
X283055785Y-70976369D01*
X283128357Y-71097321D01*
X283200928Y-71157798D01*
X283346071Y-71218274D01*
X283636357Y-71218274D01*
X283781499Y-71157798D01*
X283854071Y-71097321D01*
X283926642Y-70976369D01*
X283926642Y-69948274D01*
X284579785Y-71157798D02*
X284797499Y-71218274D01*
X285160356Y-71218274D01*
X285305499Y-71157798D01*
X285378070Y-71097321D01*
X285450642Y-70976369D01*
X285450642Y-70855417D01*
X285378070Y-70734464D01*
X285305499Y-70673988D01*
X285160356Y-70613512D01*
X284870070Y-70553036D01*
X284724928Y-70492560D01*
X284652356Y-70432083D01*
X284579785Y-70311131D01*
X284579785Y-70190179D01*
X284652356Y-70069226D01*
X284724928Y-70008750D01*
X284870070Y-69948274D01*
X285232928Y-69948274D01*
X285450642Y-70008750D01*
X260377214Y-71218274D02*
X260377214Y-69948274D01*
X260522357Y-70734464D02*
X260957786Y-71218274D01*
X260957786Y-70371607D02*
X260377214Y-70855417D01*
X261248071Y-71339226D02*
X262409214Y-71339226D01*
X263062357Y-69948274D02*
X263207500Y-69948274D01*
X263352643Y-70008750D01*
X263425214Y-70069226D01*
X263497785Y-70190179D01*
X263570357Y-70432083D01*
X263570357Y-70734464D01*
X263497785Y-70976369D01*
X263425214Y-71097321D01*
X263352643Y-71157798D01*
X263207500Y-71218274D01*
X263062357Y-71218274D01*
X262917214Y-71157798D01*
X262844643Y-71097321D01*
X262772071Y-70976369D01*
X262699500Y-70734464D01*
X262699500Y-70432083D01*
X262772071Y-70190179D01*
X262844643Y-70069226D01*
X262917214Y-70008750D01*
X263062357Y-69948274D01*
X241327214Y-71218274D02*
X241327214Y-69948274D01*
X241472357Y-70734464D02*
X241907786Y-71218274D01*
X241907786Y-70371607D02*
X241327214Y-70855417D01*
X242198071Y-71339226D02*
X243359214Y-71339226D01*
X243794643Y-71218274D02*
X244084928Y-71218274D01*
X244230071Y-71157798D01*
X244302643Y-71097321D01*
X244447785Y-70915893D01*
X244520357Y-70673988D01*
X244520357Y-70190179D01*
X244447785Y-70069226D01*
X244375214Y-70008750D01*
X244230071Y-69948274D01*
X243939785Y-69948274D01*
X243794643Y-70008750D01*
X243722071Y-70069226D01*
X243649500Y-70190179D01*
X243649500Y-70492560D01*
X243722071Y-70613512D01*
X243794643Y-70673988D01*
X243939785Y-70734464D01*
X244230071Y-70734464D01*
X244375214Y-70673988D01*
X244447785Y-70613512D01*
X244520357Y-70492560D01*
X222277214Y-71218274D02*
X222277214Y-69948274D01*
X222422357Y-70734464D02*
X222857786Y-71218274D01*
X222857786Y-70371607D02*
X222277214Y-70855417D01*
X223148071Y-71339226D02*
X224309214Y-71339226D01*
X224889785Y-70492560D02*
X224744643Y-70432083D01*
X224672071Y-70371607D01*
X224599500Y-70250655D01*
X224599500Y-70190179D01*
X224672071Y-70069226D01*
X224744643Y-70008750D01*
X224889785Y-69948274D01*
X225180071Y-69948274D01*
X225325214Y-70008750D01*
X225397785Y-70069226D01*
X225470357Y-70190179D01*
X225470357Y-70250655D01*
X225397785Y-70371607D01*
X225325214Y-70432083D01*
X225180071Y-70492560D01*
X224889785Y-70492560D01*
X224744643Y-70553036D01*
X224672071Y-70613512D01*
X224599500Y-70734464D01*
X224599500Y-70976369D01*
X224672071Y-71097321D01*
X224744643Y-71157798D01*
X224889785Y-71218274D01*
X225180071Y-71218274D01*
X225325214Y-71157798D01*
X225397785Y-71097321D01*
X225470357Y-70976369D01*
X225470357Y-70734464D01*
X225397785Y-70613512D01*
X225325214Y-70553036D01*
X225180071Y-70492560D01*
X203227214Y-71218274D02*
X203227214Y-69948274D01*
X203372357Y-70734464D02*
X203807786Y-71218274D01*
X203807786Y-70371607D02*
X203227214Y-70855417D01*
X204098071Y-71339226D02*
X205259214Y-71339226D01*
X205476928Y-69948274D02*
X206492928Y-69948274D01*
X205839785Y-71218274D01*
X184177214Y-71218274D02*
X184177214Y-69948274D01*
X184322357Y-70734464D02*
X184757786Y-71218274D01*
X184757786Y-70371607D02*
X184177214Y-70855417D01*
X185048071Y-71339226D02*
X186209214Y-71339226D01*
X187225214Y-69948274D02*
X186934928Y-69948274D01*
X186789785Y-70008750D01*
X186717214Y-70069226D01*
X186572071Y-70250655D01*
X186499500Y-70492560D01*
X186499500Y-70976369D01*
X186572071Y-71097321D01*
X186644643Y-71157798D01*
X186789785Y-71218274D01*
X187080071Y-71218274D01*
X187225214Y-71157798D01*
X187297785Y-71097321D01*
X187370357Y-70976369D01*
X187370357Y-70673988D01*
X187297785Y-70553036D01*
X187225214Y-70492560D01*
X187080071Y-70432083D01*
X186789785Y-70432083D01*
X186644643Y-70492560D01*
X186572071Y-70553036D01*
X186499500Y-70673988D01*
X146077214Y-71218274D02*
X146077214Y-69948274D01*
X146222357Y-70734464D02*
X146657786Y-71218274D01*
X146657786Y-70371607D02*
X146077214Y-70855417D01*
X146948071Y-71339226D02*
X148109214Y-71339226D01*
X149125214Y-70371607D02*
X149125214Y-71218274D01*
X148762357Y-69887798D02*
X148399500Y-70794940D01*
X149342928Y-70794940D01*
X127027214Y-71218274D02*
X127027214Y-69948274D01*
X127172357Y-70734464D02*
X127607786Y-71218274D01*
X127607786Y-70371607D02*
X127027214Y-70855417D01*
X127898071Y-71339226D02*
X129059214Y-71339226D01*
X129276928Y-69948274D02*
X130220357Y-69948274D01*
X129712357Y-70432083D01*
X129930071Y-70432083D01*
X130075214Y-70492560D01*
X130147785Y-70553036D01*
X130220357Y-70673988D01*
X130220357Y-70976369D01*
X130147785Y-71097321D01*
X130075214Y-71157798D01*
X129930071Y-71218274D01*
X129494643Y-71218274D01*
X129349500Y-71157798D01*
X129276928Y-71097321D01*
X107977214Y-71218274D02*
X107977214Y-69948274D01*
X108122357Y-70734464D02*
X108557786Y-71218274D01*
X108557786Y-70371607D02*
X107977214Y-70855417D01*
X108848071Y-71339226D02*
X110009214Y-71339226D01*
X110299500Y-70069226D02*
X110372071Y-70008750D01*
X110517214Y-69948274D01*
X110880071Y-69948274D01*
X111025214Y-70008750D01*
X111097785Y-70069226D01*
X111170357Y-70190179D01*
X111170357Y-70311131D01*
X111097785Y-70492560D01*
X110226928Y-71218274D01*
X111170357Y-71218274D01*
X88927214Y-71218274D02*
X88927214Y-69948274D01*
X89072357Y-70734464D02*
X89507786Y-71218274D01*
X89507786Y-70371607D02*
X88927214Y-70855417D01*
X89798071Y-71339226D02*
X90959214Y-71339226D01*
X92120357Y-71218274D02*
X91249500Y-71218274D01*
X91684928Y-71218274D02*
X91684928Y-69948274D01*
X91539785Y-70129702D01*
X91394643Y-70250655D01*
X91249500Y-70311131D01*
X68425786Y-71218274D02*
X68425786Y-69948274D01*
X68570929Y-70734464D02*
X69006358Y-71218274D01*
X69006358Y-70371607D02*
X68425786Y-70855417D01*
X69296643Y-71339226D02*
X70457786Y-71339226D01*
X70820643Y-70553036D02*
X71328643Y-70553036D01*
X71546357Y-71218274D02*
X70820643Y-71218274D01*
X70820643Y-69948274D01*
X71546357Y-69948274D01*
X72126929Y-71157798D02*
X72344643Y-71218274D01*
X72707500Y-71218274D01*
X72852643Y-71157798D01*
X72925214Y-71097321D01*
X72997786Y-70976369D01*
X72997786Y-70855417D01*
X72925214Y-70734464D01*
X72852643Y-70673988D01*
X72707500Y-70613512D01*
X72417214Y-70553036D01*
X72272072Y-70492560D01*
X72199500Y-70432083D01*
X72126929Y-70311131D01*
X72126929Y-70190179D01*
X72199500Y-70069226D01*
X72272072Y-70008750D01*
X72417214Y-69948274D01*
X72780072Y-69948274D01*
X72997786Y-70008750D01*
X74521786Y-71097321D02*
X74449215Y-71157798D01*
X74231501Y-71218274D01*
X74086358Y-71218274D01*
X73868643Y-71157798D01*
X73723501Y-71036845D01*
X73650929Y-70915893D01*
X73578358Y-70673988D01*
X73578358Y-70492560D01*
X73650929Y-70250655D01*
X73723501Y-70129702D01*
X73868643Y-70008750D01*
X74086358Y-69948274D01*
X74231501Y-69948274D01*
X74449215Y-70008750D01*
X74521786Y-70069226D01*
X165127214Y-71218274D02*
X165127214Y-69948274D01*
X165272357Y-70734464D02*
X165707786Y-71218274D01*
X165707786Y-70371607D02*
X165127214Y-70855417D01*
X165998071Y-71339226D02*
X167159214Y-71339226D01*
X168247785Y-69948274D02*
X167522071Y-69948274D01*
X167449500Y-70553036D01*
X167522071Y-70492560D01*
X167667214Y-70432083D01*
X168030071Y-70432083D01*
X168175214Y-70492560D01*
X168247785Y-70553036D01*
X168320357Y-70673988D01*
X168320357Y-70976369D01*
X168247785Y-71097321D01*
X168175214Y-71157798D01*
X168030071Y-71218274D01*
X167667214Y-71218274D01*
X167522071Y-71157798D01*
X167449500Y-71097321D01*
D10*
X235307143Y-140596857D02*
X235354762Y-140644476D01*
X235402381Y-140787333D01*
X235402381Y-140882571D01*
X235354762Y-141025429D01*
X235259524Y-141120667D01*
X235164286Y-141168286D01*
X234973810Y-141215905D01*
X234830952Y-141215905D01*
X234640476Y-141168286D01*
X234545238Y-141120667D01*
X234450000Y-141025429D01*
X234402381Y-140882571D01*
X234402381Y-140787333D01*
X234450000Y-140644476D01*
X234497619Y-140596857D01*
X235402381Y-139644476D02*
X235402381Y-140215905D01*
X235402381Y-139930191D02*
X234402381Y-139930191D01*
X234545238Y-140025429D01*
X234640476Y-140120667D01*
X234688095Y-140215905D01*
X235402381Y-139168286D02*
X235402381Y-138977810D01*
X235354762Y-138882571D01*
X235307143Y-138834952D01*
X235164286Y-138739714D01*
X234973810Y-138692095D01*
X234592857Y-138692095D01*
X234497619Y-138739714D01*
X234450000Y-138787333D01*
X234402381Y-138882571D01*
X234402381Y-139073048D01*
X234450000Y-139168286D01*
X234497619Y-139215905D01*
X234592857Y-139263524D01*
X234830952Y-139263524D01*
X234926190Y-139215905D01*
X234973810Y-139168286D01*
X235021429Y-139073048D01*
X235021429Y-138882571D01*
X234973810Y-138787333D01*
X234926190Y-138739714D01*
X234830952Y-138692095D01*
X234037143Y-140596857D02*
X234084762Y-140644476D01*
X234132381Y-140787333D01*
X234132381Y-140882571D01*
X234084762Y-141025429D01*
X233989524Y-141120667D01*
X233894286Y-141168286D01*
X233703810Y-141215905D01*
X233560952Y-141215905D01*
X233370476Y-141168286D01*
X233275238Y-141120667D01*
X233180000Y-141025429D01*
X233132381Y-140882571D01*
X233132381Y-140787333D01*
X233180000Y-140644476D01*
X233227619Y-140596857D01*
X233227619Y-140215905D02*
X233180000Y-140168286D01*
X233132381Y-140073048D01*
X233132381Y-139834952D01*
X233180000Y-139739714D01*
X233227619Y-139692095D01*
X233322857Y-139644476D01*
X233418095Y-139644476D01*
X233560952Y-139692095D01*
X234132381Y-140263524D01*
X234132381Y-139644476D01*
X233132381Y-139025429D02*
X233132381Y-138930190D01*
X233180000Y-138834952D01*
X233227619Y-138787333D01*
X233322857Y-138739714D01*
X233513333Y-138692095D01*
X233751429Y-138692095D01*
X233941905Y-138739714D01*
X234037143Y-138787333D01*
X234084762Y-138834952D01*
X234132381Y-138930190D01*
X234132381Y-139025429D01*
X234084762Y-139120667D01*
X234037143Y-139168286D01*
X233941905Y-139215905D01*
X233751429Y-139263524D01*
X233513333Y-139263524D01*
X233322857Y-139215905D01*
X233227619Y-139168286D01*
X233180000Y-139120667D01*
X233132381Y-139025429D01*
X243070143Y-148693143D02*
X243022524Y-148740762D01*
X242879667Y-148788381D01*
X242784429Y-148788381D01*
X242641571Y-148740762D01*
X242546333Y-148645524D01*
X242498714Y-148550286D01*
X242451095Y-148359810D01*
X242451095Y-148216952D01*
X242498714Y-148026476D01*
X242546333Y-147931238D01*
X242641571Y-147836000D01*
X242784429Y-147788381D01*
X242879667Y-147788381D01*
X243022524Y-147836000D01*
X243070143Y-147883619D01*
X243451095Y-147883619D02*
X243498714Y-147836000D01*
X243593952Y-147788381D01*
X243832048Y-147788381D01*
X243927286Y-147836000D01*
X243974905Y-147883619D01*
X244022524Y-147978857D01*
X244022524Y-148074095D01*
X243974905Y-148216952D01*
X243403476Y-148788381D01*
X244022524Y-148788381D01*
X244974905Y-148788381D02*
X244403476Y-148788381D01*
X244689190Y-148788381D02*
X244689190Y-147788381D01*
X244593952Y-147931238D01*
X244498714Y-148026476D01*
X244403476Y-148074095D01*
X243070143Y-149963143D02*
X243022524Y-150010762D01*
X242879667Y-150058381D01*
X242784429Y-150058381D01*
X242641571Y-150010762D01*
X242546333Y-149915524D01*
X242498714Y-149820286D01*
X242451095Y-149629810D01*
X242451095Y-149486952D01*
X242498714Y-149296476D01*
X242546333Y-149201238D01*
X242641571Y-149106000D01*
X242784429Y-149058381D01*
X242879667Y-149058381D01*
X243022524Y-149106000D01*
X243070143Y-149153619D01*
X243451095Y-149153619D02*
X243498714Y-149106000D01*
X243593952Y-149058381D01*
X243832048Y-149058381D01*
X243927286Y-149106000D01*
X243974905Y-149153619D01*
X244022524Y-149248857D01*
X244022524Y-149344095D01*
X243974905Y-149486952D01*
X243403476Y-150058381D01*
X244022524Y-150058381D01*
X244403476Y-149153619D02*
X244451095Y-149106000D01*
X244546333Y-149058381D01*
X244784429Y-149058381D01*
X244879667Y-149106000D01*
X244927286Y-149153619D01*
X244974905Y-149248857D01*
X244974905Y-149344095D01*
X244927286Y-149486952D01*
X244355857Y-150058381D01*
X244974905Y-150058381D01*
X235180143Y-153042857D02*
X235227762Y-153090476D01*
X235275381Y-153233333D01*
X235275381Y-153328571D01*
X235227762Y-153471429D01*
X235132524Y-153566667D01*
X235037286Y-153614286D01*
X234846810Y-153661905D01*
X234703952Y-153661905D01*
X234513476Y-153614286D01*
X234418238Y-153566667D01*
X234323000Y-153471429D01*
X234275381Y-153328571D01*
X234275381Y-153233333D01*
X234323000Y-153090476D01*
X234370619Y-153042857D01*
X234370619Y-152661905D02*
X234323000Y-152614286D01*
X234275381Y-152519048D01*
X234275381Y-152280952D01*
X234323000Y-152185714D01*
X234370619Y-152138095D01*
X234465857Y-152090476D01*
X234561095Y-152090476D01*
X234703952Y-152138095D01*
X235275381Y-152709524D01*
X235275381Y-152090476D01*
X234275381Y-151757143D02*
X234275381Y-151138095D01*
X234656333Y-151471429D01*
X234656333Y-151328571D01*
X234703952Y-151233333D01*
X234751571Y-151185714D01*
X234846810Y-151138095D01*
X235084905Y-151138095D01*
X235180143Y-151185714D01*
X235227762Y-151233333D01*
X235275381Y-151328571D01*
X235275381Y-151614286D01*
X235227762Y-151709524D01*
X235180143Y-151757143D01*
X236450143Y-153042857D02*
X236497762Y-153090476D01*
X236545381Y-153233333D01*
X236545381Y-153328571D01*
X236497762Y-153471429D01*
X236402524Y-153566667D01*
X236307286Y-153614286D01*
X236116810Y-153661905D01*
X235973952Y-153661905D01*
X235783476Y-153614286D01*
X235688238Y-153566667D01*
X235593000Y-153471429D01*
X235545381Y-153328571D01*
X235545381Y-153233333D01*
X235593000Y-153090476D01*
X235640619Y-153042857D01*
X235640619Y-152661905D02*
X235593000Y-152614286D01*
X235545381Y-152519048D01*
X235545381Y-152280952D01*
X235593000Y-152185714D01*
X235640619Y-152138095D01*
X235735857Y-152090476D01*
X235831095Y-152090476D01*
X235973952Y-152138095D01*
X236545381Y-152709524D01*
X236545381Y-152090476D01*
X235878714Y-151233333D02*
X236545381Y-151233333D01*
X235497762Y-151471429D02*
X236212048Y-151709524D01*
X236212048Y-151090476D01*
X233910143Y-153042857D02*
X233957762Y-153090476D01*
X234005381Y-153233333D01*
X234005381Y-153328571D01*
X233957762Y-153471429D01*
X233862524Y-153566667D01*
X233767286Y-153614286D01*
X233576810Y-153661905D01*
X233433952Y-153661905D01*
X233243476Y-153614286D01*
X233148238Y-153566667D01*
X233053000Y-153471429D01*
X233005381Y-153328571D01*
X233005381Y-153233333D01*
X233053000Y-153090476D01*
X233100619Y-153042857D01*
X233100619Y-152661905D02*
X233053000Y-152614286D01*
X233005381Y-152519048D01*
X233005381Y-152280952D01*
X233053000Y-152185714D01*
X233100619Y-152138095D01*
X233195857Y-152090476D01*
X233291095Y-152090476D01*
X233433952Y-152138095D01*
X234005381Y-152709524D01*
X234005381Y-152090476D01*
X233005381Y-151185714D02*
X233005381Y-151661905D01*
X233481571Y-151709524D01*
X233433952Y-151661905D01*
X233386333Y-151566667D01*
X233386333Y-151328571D01*
X233433952Y-151233333D01*
X233481571Y-151185714D01*
X233576810Y-151138095D01*
X233814905Y-151138095D01*
X233910143Y-151185714D01*
X233957762Y-151233333D01*
X234005381Y-151328571D01*
X234005381Y-151566667D01*
X233957762Y-151661905D01*
X233910143Y-151709524D01*
X229560381Y-157646666D02*
X229084190Y-157980000D01*
X229560381Y-158218095D02*
X228560381Y-158218095D01*
X228560381Y-157837142D01*
X228608000Y-157741904D01*
X228655619Y-157694285D01*
X228750857Y-157646666D01*
X228893714Y-157646666D01*
X228988952Y-157694285D01*
X229036571Y-157741904D01*
X229084190Y-157837142D01*
X229084190Y-158218095D01*
X228893714Y-156789523D02*
X229560381Y-156789523D01*
X228512762Y-157027619D02*
X229227048Y-157265714D01*
X229227048Y-156646666D01*
X227655381Y-155995666D02*
X227179190Y-156329000D01*
X227655381Y-156567095D02*
X226655381Y-156567095D01*
X226655381Y-156186142D01*
X226703000Y-156090904D01*
X226750619Y-156043285D01*
X226845857Y-155995666D01*
X226988714Y-155995666D01*
X227083952Y-156043285D01*
X227131571Y-156090904D01*
X227179190Y-156186142D01*
X227179190Y-156567095D01*
X226655381Y-155090904D02*
X226655381Y-155567095D01*
X227131571Y-155614714D01*
X227083952Y-155567095D01*
X227036333Y-155471857D01*
X227036333Y-155233761D01*
X227083952Y-155138523D01*
X227131571Y-155090904D01*
X227226810Y-155043285D01*
X227464905Y-155043285D01*
X227560143Y-155090904D01*
X227607762Y-155138523D01*
X227655381Y-155233761D01*
X227655381Y-155471857D01*
X227607762Y-155567095D01*
X227560143Y-155614714D01*
X233624381Y-157646666D02*
X233148190Y-157980000D01*
X233624381Y-158218095D02*
X232624381Y-158218095D01*
X232624381Y-157837142D01*
X232672000Y-157741904D01*
X232719619Y-157694285D01*
X232814857Y-157646666D01*
X232957714Y-157646666D01*
X233052952Y-157694285D01*
X233100571Y-157741904D01*
X233148190Y-157837142D01*
X233148190Y-158218095D01*
X232624381Y-157313333D02*
X232624381Y-156646666D01*
X233624381Y-157075238D01*
X224734381Y-155995666D02*
X224258190Y-156329000D01*
X224734381Y-156567095D02*
X223734381Y-156567095D01*
X223734381Y-156186142D01*
X223782000Y-156090904D01*
X223829619Y-156043285D01*
X223924857Y-155995666D01*
X224067714Y-155995666D01*
X224162952Y-156043285D01*
X224210571Y-156090904D01*
X224258190Y-156186142D01*
X224258190Y-156567095D01*
X224162952Y-155424238D02*
X224115333Y-155519476D01*
X224067714Y-155567095D01*
X223972476Y-155614714D01*
X223924857Y-155614714D01*
X223829619Y-155567095D01*
X223782000Y-155519476D01*
X223734381Y-155424238D01*
X223734381Y-155233761D01*
X223782000Y-155138523D01*
X223829619Y-155090904D01*
X223924857Y-155043285D01*
X223972476Y-155043285D01*
X224067714Y-155090904D01*
X224115333Y-155138523D01*
X224162952Y-155233761D01*
X224162952Y-155424238D01*
X224210571Y-155519476D01*
X224258190Y-155567095D01*
X224353429Y-155614714D01*
X224543905Y-155614714D01*
X224639143Y-155567095D01*
X224686762Y-155519476D01*
X224734381Y-155424238D01*
X224734381Y-155233761D01*
X224686762Y-155138523D01*
X224639143Y-155090904D01*
X224543905Y-155043285D01*
X224353429Y-155043285D01*
X224258190Y-155090904D01*
X224210571Y-155138523D01*
X224162952Y-155233761D01*
X226258381Y-155995666D02*
X225782190Y-156329000D01*
X226258381Y-156567095D02*
X225258381Y-156567095D01*
X225258381Y-156186142D01*
X225306000Y-156090904D01*
X225353619Y-156043285D01*
X225448857Y-155995666D01*
X225591714Y-155995666D01*
X225686952Y-156043285D01*
X225734571Y-156090904D01*
X225782190Y-156186142D01*
X225782190Y-156567095D01*
X226258381Y-155519476D02*
X226258381Y-155329000D01*
X226210762Y-155233761D01*
X226163143Y-155186142D01*
X226020286Y-155090904D01*
X225829810Y-155043285D01*
X225448857Y-155043285D01*
X225353619Y-155090904D01*
X225306000Y-155138523D01*
X225258381Y-155233761D01*
X225258381Y-155424238D01*
X225306000Y-155519476D01*
X225353619Y-155567095D01*
X225448857Y-155614714D01*
X225686952Y-155614714D01*
X225782190Y-155567095D01*
X225829810Y-155519476D01*
X225877429Y-155424238D01*
X225877429Y-155233761D01*
X225829810Y-155138523D01*
X225782190Y-155090904D01*
X225686952Y-155043285D01*
X174347143Y-143676666D02*
X174394762Y-143724285D01*
X174442381Y-143867142D01*
X174442381Y-143962380D01*
X174394762Y-144105238D01*
X174299524Y-144200476D01*
X174204286Y-144248095D01*
X174013810Y-144295714D01*
X173870952Y-144295714D01*
X173680476Y-144248095D01*
X173585238Y-144200476D01*
X173490000Y-144105238D01*
X173442381Y-143962380D01*
X173442381Y-143867142D01*
X173490000Y-143724285D01*
X173537619Y-143676666D01*
X173442381Y-142819523D02*
X173442381Y-143010000D01*
X173490000Y-143105238D01*
X173537619Y-143152857D01*
X173680476Y-143248095D01*
X173870952Y-143295714D01*
X174251905Y-143295714D01*
X174347143Y-143248095D01*
X174394762Y-143200476D01*
X174442381Y-143105238D01*
X174442381Y-142914761D01*
X174394762Y-142819523D01*
X174347143Y-142771904D01*
X174251905Y-142724285D01*
X174013810Y-142724285D01*
X173918571Y-142771904D01*
X173870952Y-142819523D01*
X173823333Y-142914761D01*
X173823333Y-143105238D01*
X173870952Y-143200476D01*
X173918571Y-143248095D01*
X174013810Y-143295714D01*
X163557143Y-147200857D02*
X163604762Y-147248476D01*
X163652381Y-147391333D01*
X163652381Y-147486571D01*
X163604762Y-147629429D01*
X163509524Y-147724667D01*
X163414286Y-147772286D01*
X163223810Y-147819905D01*
X163080952Y-147819905D01*
X162890476Y-147772286D01*
X162795238Y-147724667D01*
X162700000Y-147629429D01*
X162652381Y-147486571D01*
X162652381Y-147391333D01*
X162700000Y-147248476D01*
X162747619Y-147200857D01*
X163652381Y-146248476D02*
X163652381Y-146819905D01*
X163652381Y-146534191D02*
X162652381Y-146534191D01*
X162795238Y-146629429D01*
X162890476Y-146724667D01*
X162938095Y-146819905D01*
X162652381Y-145629429D02*
X162652381Y-145534190D01*
X162700000Y-145438952D01*
X162747619Y-145391333D01*
X162842857Y-145343714D01*
X163033333Y-145296095D01*
X163271429Y-145296095D01*
X163461905Y-145343714D01*
X163557143Y-145391333D01*
X163604762Y-145438952D01*
X163652381Y-145534190D01*
X163652381Y-145629429D01*
X163604762Y-145724667D01*
X163557143Y-145772286D01*
X163461905Y-145819905D01*
X163271429Y-145867524D01*
X163033333Y-145867524D01*
X162842857Y-145819905D01*
X162747619Y-145772286D01*
X162700000Y-145724667D01*
X162652381Y-145629429D01*
X167259095Y-143637381D02*
X167259095Y-144446905D01*
X167306714Y-144542143D01*
X167354333Y-144589762D01*
X167449571Y-144637381D01*
X167640048Y-144637381D01*
X167735286Y-144589762D01*
X167782905Y-144542143D01*
X167830524Y-144446905D01*
X167830524Y-143637381D01*
X168211476Y-143637381D02*
X168830524Y-143637381D01*
X168497190Y-144018333D01*
X168640048Y-144018333D01*
X168735286Y-144065952D01*
X168782905Y-144113571D01*
X168830524Y-144208810D01*
X168830524Y-144446905D01*
X168782905Y-144542143D01*
X168735286Y-144589762D01*
X168640048Y-144637381D01*
X168354333Y-144637381D01*
X168259095Y-144589762D01*
X168211476Y-144542143D01*
D13*
X188359143Y-153736524D02*
X188359143Y-152466524D01*
X188504286Y-153252714D02*
X188939715Y-153736524D01*
X188939715Y-152889857D02*
X188359143Y-153373667D01*
X189230000Y-153857476D02*
X190391143Y-153857476D01*
X190681429Y-153676048D02*
X190899143Y-153736524D01*
X191262000Y-153736524D01*
X191407143Y-153676048D01*
X191479714Y-153615571D01*
X191552286Y-153494619D01*
X191552286Y-153373667D01*
X191479714Y-153252714D01*
X191407143Y-153192238D01*
X191262000Y-153131762D01*
X190971714Y-153071286D01*
X190826572Y-153010810D01*
X190754000Y-152950333D01*
X190681429Y-152829381D01*
X190681429Y-152708429D01*
X190754000Y-152587476D01*
X190826572Y-152527000D01*
X190971714Y-152466524D01*
X191334572Y-152466524D01*
X191552286Y-152527000D01*
X192205429Y-153736524D02*
X192205429Y-152466524D01*
X192786001Y-152466524D01*
X192931143Y-152527000D01*
X193003715Y-152587476D01*
X193076286Y-152708429D01*
X193076286Y-152889857D01*
X193003715Y-153010810D01*
X192931143Y-153071286D01*
X192786001Y-153131762D01*
X192205429Y-153131762D01*
X193656858Y-153373667D02*
X194382572Y-153373667D01*
X193511715Y-153736524D02*
X194019715Y-152466524D01*
X194527715Y-153736524D01*
X195906572Y-153615571D02*
X195834001Y-153676048D01*
X195616287Y-153736524D01*
X195471144Y-153736524D01*
X195253429Y-153676048D01*
X195108287Y-153555095D01*
X195035715Y-153434143D01*
X194963144Y-153192238D01*
X194963144Y-153010810D01*
X195035715Y-152768905D01*
X195108287Y-152647952D01*
X195253429Y-152527000D01*
X195471144Y-152466524D01*
X195616287Y-152466524D01*
X195834001Y-152527000D01*
X195906572Y-152587476D01*
X196559715Y-153071286D02*
X197067715Y-153071286D01*
X197285429Y-153736524D02*
X196559715Y-153736524D01*
X196559715Y-152466524D01*
X197285429Y-152466524D01*
D10*
X170521334Y-145735381D02*
X170188000Y-145259190D01*
X169949905Y-145735381D02*
X169949905Y-144735381D01*
X170330858Y-144735381D01*
X170426096Y-144783000D01*
X170473715Y-144830619D01*
X170521334Y-144925857D01*
X170521334Y-145068714D01*
X170473715Y-145163952D01*
X170426096Y-145211571D01*
X170330858Y-145259190D01*
X169949905Y-145259190D01*
X171473715Y-145735381D02*
X170902286Y-145735381D01*
X171188000Y-145735381D02*
X171188000Y-144735381D01*
X171092762Y-144878238D01*
X170997524Y-144973476D01*
X170902286Y-145021095D01*
X176744334Y-142856143D02*
X176696715Y-142903762D01*
X176553858Y-142951381D01*
X176458620Y-142951381D01*
X176315762Y-142903762D01*
X176220524Y-142808524D01*
X176172905Y-142713286D01*
X176125286Y-142522810D01*
X176125286Y-142379952D01*
X176172905Y-142189476D01*
X176220524Y-142094238D01*
X176315762Y-141999000D01*
X176458620Y-141951381D01*
X176553858Y-141951381D01*
X176696715Y-141999000D01*
X176744334Y-142046619D01*
X177696715Y-142951381D02*
X177125286Y-142951381D01*
X177411000Y-142951381D02*
X177411000Y-141951381D01*
X177315762Y-142094238D01*
X177220524Y-142189476D01*
X177125286Y-142237095D01*
X151090334Y-149714143D02*
X151042715Y-149761762D01*
X150899858Y-149809381D01*
X150804620Y-149809381D01*
X150661762Y-149761762D01*
X150566524Y-149666524D01*
X150518905Y-149571286D01*
X150471286Y-149380810D01*
X150471286Y-149237952D01*
X150518905Y-149047476D01*
X150566524Y-148952238D01*
X150661762Y-148857000D01*
X150804620Y-148809381D01*
X150899858Y-148809381D01*
X151042715Y-148857000D01*
X151090334Y-148904619D01*
X151471286Y-148904619D02*
X151518905Y-148857000D01*
X151614143Y-148809381D01*
X151852239Y-148809381D01*
X151947477Y-148857000D01*
X151995096Y-148904619D01*
X152042715Y-148999857D01*
X152042715Y-149095095D01*
X151995096Y-149237952D01*
X151423667Y-149809381D01*
X152042715Y-149809381D01*
X153376334Y-149450143D02*
X153328715Y-149497762D01*
X153185858Y-149545381D01*
X153090620Y-149545381D01*
X152947762Y-149497762D01*
X152852524Y-149402524D01*
X152804905Y-149307286D01*
X152757286Y-149116810D01*
X152757286Y-148973952D01*
X152804905Y-148783476D01*
X152852524Y-148688238D01*
X152947762Y-148593000D01*
X153090620Y-148545381D01*
X153185858Y-148545381D01*
X153328715Y-148593000D01*
X153376334Y-148640619D01*
X153709667Y-148545381D02*
X154328715Y-148545381D01*
X153995381Y-148926333D01*
X154138239Y-148926333D01*
X154233477Y-148973952D01*
X154281096Y-149021571D01*
X154328715Y-149116810D01*
X154328715Y-149354905D01*
X154281096Y-149450143D01*
X154233477Y-149497762D01*
X154138239Y-149545381D01*
X153852524Y-149545381D01*
X153757286Y-149497762D01*
X153709667Y-149450143D01*
X152889143Y-150534666D02*
X152936762Y-150582285D01*
X152984381Y-150725142D01*
X152984381Y-150820380D01*
X152936762Y-150963238D01*
X152841524Y-151058476D01*
X152746286Y-151106095D01*
X152555810Y-151153714D01*
X152412952Y-151153714D01*
X152222476Y-151106095D01*
X152127238Y-151058476D01*
X152032000Y-150963238D01*
X151984381Y-150820380D01*
X151984381Y-150725142D01*
X152032000Y-150582285D01*
X152079619Y-150534666D01*
X152317714Y-149677523D02*
X152984381Y-149677523D01*
X151936762Y-149915619D02*
X152651048Y-150153714D01*
X152651048Y-149534666D01*
X152625143Y-148248666D02*
X152672762Y-148296285D01*
X152720381Y-148439142D01*
X152720381Y-148534380D01*
X152672762Y-148677238D01*
X152577524Y-148772476D01*
X152482286Y-148820095D01*
X152291810Y-148867714D01*
X152148952Y-148867714D01*
X151958476Y-148820095D01*
X151863238Y-148772476D01*
X151768000Y-148677238D01*
X151720381Y-148534380D01*
X151720381Y-148439142D01*
X151768000Y-148296285D01*
X151815619Y-148248666D01*
X151720381Y-147343904D02*
X151720381Y-147820095D01*
X152196571Y-147867714D01*
X152148952Y-147820095D01*
X152101333Y-147724857D01*
X152101333Y-147486761D01*
X152148952Y-147391523D01*
X152196571Y-147343904D01*
X152291810Y-147296285D01*
X152529905Y-147296285D01*
X152625143Y-147343904D01*
X152672762Y-147391523D01*
X152720381Y-147486761D01*
X152720381Y-147724857D01*
X152672762Y-147820095D01*
X152625143Y-147867714D01*
X221067334Y-146393143D02*
X221019715Y-146440762D01*
X220876858Y-146488381D01*
X220781620Y-146488381D01*
X220638762Y-146440762D01*
X220543524Y-146345524D01*
X220495905Y-146250286D01*
X220448286Y-146059810D01*
X220448286Y-145916952D01*
X220495905Y-145726476D01*
X220543524Y-145631238D01*
X220638762Y-145536000D01*
X220781620Y-145488381D01*
X220876858Y-145488381D01*
X221019715Y-145536000D01*
X221067334Y-145583619D01*
X221400667Y-145488381D02*
X222067334Y-145488381D01*
X221638762Y-146488381D01*
X243165334Y-153741381D02*
X242832000Y-153265190D01*
X242593905Y-153741381D02*
X242593905Y-152741381D01*
X242974858Y-152741381D01*
X243070096Y-152789000D01*
X243117715Y-152836619D01*
X243165334Y-152931857D01*
X243165334Y-153074714D01*
X243117715Y-153169952D01*
X243070096Y-153217571D01*
X242974858Y-153265190D01*
X242593905Y-153265190D01*
X244022477Y-152741381D02*
X243832000Y-152741381D01*
X243736762Y-152789000D01*
X243689143Y-152836619D01*
X243593905Y-152979476D01*
X243546286Y-153169952D01*
X243546286Y-153550905D01*
X243593905Y-153646143D01*
X243641524Y-153693762D01*
X243736762Y-153741381D01*
X243927239Y-153741381D01*
X244022477Y-153693762D01*
X244070096Y-153646143D01*
X244117715Y-153550905D01*
X244117715Y-153312810D01*
X244070096Y-153217571D01*
X244022477Y-153169952D01*
X243927239Y-153122333D01*
X243736762Y-153122333D01*
X243641524Y-153169952D01*
X243593905Y-153217571D01*
X243546286Y-153312810D01*
X76294381Y-84177095D02*
X75294381Y-84177095D01*
X75294381Y-83796142D01*
X75342000Y-83700904D01*
X75389619Y-83653285D01*
X75484857Y-83605666D01*
X75627714Y-83605666D01*
X75722952Y-83653285D01*
X75770571Y-83700904D01*
X75818190Y-83796142D01*
X75818190Y-84177095D01*
X75389619Y-83224714D02*
X75342000Y-83177095D01*
X75294381Y-83081857D01*
X75294381Y-82843761D01*
X75342000Y-82748523D01*
X75389619Y-82700904D01*
X75484857Y-82653285D01*
X75580095Y-82653285D01*
X75722952Y-82700904D01*
X76294381Y-83272333D01*
X76294381Y-82653285D01*
X163797381Y-152233095D02*
X162797381Y-152233095D01*
X162797381Y-151995000D01*
X162845000Y-151852142D01*
X162940238Y-151756904D01*
X163035476Y-151709285D01*
X163225952Y-151661666D01*
X163368810Y-151661666D01*
X163559286Y-151709285D01*
X163654524Y-151756904D01*
X163749762Y-151852142D01*
X163797381Y-151995000D01*
X163797381Y-152233095D01*
X163273571Y-150899761D02*
X163321190Y-150756904D01*
X163368810Y-150709285D01*
X163464048Y-150661666D01*
X163606905Y-150661666D01*
X163702143Y-150709285D01*
X163749762Y-150756904D01*
X163797381Y-150852142D01*
X163797381Y-151233095D01*
X162797381Y-151233095D01*
X162797381Y-150899761D01*
X162845000Y-150804523D01*
X162892619Y-150756904D01*
X162987857Y-150709285D01*
X163083095Y-150709285D01*
X163178333Y-150756904D01*
X163225952Y-150804523D01*
X163273571Y-150899761D01*
X163273571Y-151233095D01*
X162845000Y-149709285D02*
X162797381Y-149804523D01*
X162797381Y-149947380D01*
X162845000Y-150090238D01*
X162940238Y-150185476D01*
X163035476Y-150233095D01*
X163225952Y-150280714D01*
X163368810Y-150280714D01*
X163559286Y-150233095D01*
X163654524Y-150185476D01*
X163749762Y-150090238D01*
X163797381Y-149947380D01*
X163797381Y-149852142D01*
X163749762Y-149709285D01*
X163702143Y-149661666D01*
X163368810Y-149661666D01*
X163368810Y-149852142D01*
X163797381Y-148709285D02*
X163797381Y-149280714D01*
X163797381Y-148995000D02*
X162797381Y-148995000D01*
X162940238Y-149090238D01*
X163035476Y-149185476D01*
X163083095Y-149280714D01*
X200611571Y-152169619D02*
X200611571Y-151836285D01*
X201135381Y-151693428D02*
X201135381Y-152169619D01*
X200135381Y-152169619D01*
X200135381Y-151693428D01*
X200135381Y-151360095D02*
X201135381Y-150693428D01*
X200135381Y-150693428D02*
X201135381Y-151360095D01*
X200135381Y-150455333D02*
X200135381Y-149883904D01*
X201135381Y-150169619D02*
X200135381Y-150169619D01*
X201135381Y-149026761D02*
X201135381Y-149598190D01*
X201135381Y-149312476D02*
X200135381Y-149312476D01*
X200278238Y-149407714D01*
X200373476Y-149502952D01*
X200421095Y-149598190D01*
X154286143Y-151010857D02*
X154333762Y-151058476D01*
X154381381Y-151201333D01*
X154381381Y-151296571D01*
X154333762Y-151439429D01*
X154238524Y-151534667D01*
X154143286Y-151582286D01*
X153952810Y-151629905D01*
X153809952Y-151629905D01*
X153619476Y-151582286D01*
X153524238Y-151534667D01*
X153429000Y-151439429D01*
X153381381Y-151296571D01*
X153381381Y-151201333D01*
X153429000Y-151058476D01*
X153476619Y-151010857D01*
X154381381Y-150058476D02*
X154381381Y-150629905D01*
X154381381Y-150344191D02*
X153381381Y-150344191D01*
X153524238Y-150439429D01*
X153619476Y-150534667D01*
X153667095Y-150629905D01*
X154381381Y-149106095D02*
X154381381Y-149677524D01*
X154381381Y-149391810D02*
X153381381Y-149391810D01*
X153524238Y-149487048D01*
X153619476Y-149582286D01*
X153667095Y-149677524D01*
D14*
X75903067Y-74918684D02*
X75903067Y-75825827D01*
X75842591Y-76007255D01*
X75721639Y-76128208D01*
X75540210Y-76188684D01*
X75419258Y-76188684D01*
X77173067Y-76188684D02*
X76447353Y-76188684D01*
X76810210Y-76188684D02*
X76810210Y-74918684D01*
X76689258Y-75100112D01*
X76568305Y-75221065D01*
X76447353Y-75281541D01*
M02*
